# Blender v2.93.6 OBJ File: ''
# www.blender.org
mtllib cacti.mtl
o 10436_Cactus_v1_max2010_it2
v 4.197448 -5.309885 -248.239120
v -6.917267 -0.049009 -0.180098
v 2.304244 6.992995 -236.716843
v 6.581332 1.378955 0.086752
v 0.861438 5.956668 -0.060611
v 3.812703 -6.464883 0.088381
v -3.064278 -7.049575 -28.076057
v -5.497211 0.547087 -114.626137
v 8.774399 -1.660721 -77.040398
v 7.570841 5.663027 -78.006683
v 1.331707 -10.028932 -53.752560
v -2.300378 8.622142 -35.530735
v -8.994614 -3.661709 -40.678555
v 2.243924 -11.007458 -38.374882
v 11.449216 -1.410963 -57.564575
v -3.911068 -7.778777 -61.398849
v -8.711082 5.314352 -67.905113
v 2.383128 8.630318 -60.453121
v -7.141949 1.943078 -55.647572
v -4.733478 -7.395226 -47.033440
v 2.549238 -8.779339 -77.253082
v 6.724423 7.493975 -52.876389
v -0.747942 -6.069177 -123.008911
v 9.623304 -5.729806 -112.974342
v -1.551320 7.170917 -113.983528
v 6.528966 6.680648 -128.554306
v -1.829435 0.951931 -246.728455
v 9.128674 -6.229735 -211.343628
v 10.782207 0.753377 -246.775009
v 28.448168 3.456001 -103.817924
v 27.248711 -2.819819 -104.557144
v 16.140810 -1.249984 -58.489857
v 27.729010 -6.103984 -65.840836
v 21.542603 6.913986 -53.217121
v 23.509464 4.811484 -47.708328
v 29.690426 0.999295 -51.995686
v 9.038406 -5.798101 -44.846203
v 8.833366 6.314797 -45.158833
v 33.932732 1.037014 -99.415268
v -15.245130 -23.010876 -156.249329
v -13.713050 -23.470734 -60.788578
v -20.945288 -13.564385 -73.158028
v -7.203444 -16.466272 -66.751022
v -18.327436 -10.890086 -53.917358
v -12.511744 -10.649624 -66.462341
v -22.785156 20.279161 -208.824966
v -13.213098 25.238682 -206.084442
v -16.468472 20.696793 -213.461044
v -14.280834 19.324764 -62.373016
v -12.420156 23.473936 -79.172890
v -7.182655 16.174074 -71.477364
v -9.224745 -0.499318 -60.725178
v -1.156183 8.880917 -68.620293
v -19.523863 22.921041 -109.964211
v -7.990312 18.078671 -95.841576
v -21.442339 16.312449 -74.838394
v -18.465206 11.360042 -78.466698
v -13.720086 15.169599 -202.644104
v -24.071173 -21.798697 -144.245758
v -10.990406 -17.464769 -126.983452
v -19.338461 -25.890409 -150.195465
v -18.964733 -15.555552 -153.637314
vt 0.010401 0.864703
vt 0.064503 0.842458
vt 0.011800 0.868800
vt 0.062395 0.916264
vt 0.119613 0.877640
vt 0.500175 0.710322
vt 0.339514 0.727417
vt 0.486689 0.657372
vt 0.994692 0.854025
vt 0.815117 0.823418
vt 0.993310 0.826425
vt 0.828963 0.958261
vt 0.940549 0.942402
vt 0.984475 0.980325
vt 0.102227 0.608051
vt 0.125642 0.560889
vt 0.098606 0.583750
vt 0.323250 0.526659
vt 0.281388 0.594885
vt 0.256511 0.546826
vt 0.262396 0.723432
vt 0.222117 0.695407
vt 0.163458 0.571044
vt 0.139286 0.525795
vt 0.172854 0.675305
vt 0.060611 0.687883
vt 0.052285 0.641053
vt 0.178825 0.729728
vt 0.235176 0.726937
vt 0.104226 0.730600
vt 0.043641 0.723638
vt 0.143288 0.611710
vt 0.206867 0.530756
vt 0.262206 0.506664
vt 0.980575 0.804862
vt 0.764199 0.788768
vt 0.974649 0.771415
vt 0.994102 0.903706
vt 0.732206 0.904978
vt 0.821593 0.866878
vt 0.048108 0.924235
vt 0.692313 0.989577
vt 0.263518 0.960221
vt 0.268146 0.765500
vt 0.053267 0.773793
vt 0.885688 0.598663
vt 0.975227 0.622952
vt 0.825515 0.626604
vt 0.902941 0.535517
vt 0.972811 0.508414
vt 0.983214 0.536846
vt 0.979618 0.574626
vt 0.912216 0.573730
vt 0.890665 0.671409
vt 0.615364 0.645099
vt 0.634990 0.586129
vt 0.606864 0.545928
vt 0.506780 0.224129
vt 0.538902 0.150090
vt 0.586523 0.196066
vt 0.557143 0.255473
vt 0.529621 0.099827
vt 0.545159 0.075618
vt 0.654652 0.121263
vt 0.654717 0.169104
vt 0.655407 0.223496
vt 0.100658 0.467941
vt 0.024086 0.425335
vt 0.077786 0.424971
vt 0.070019 0.352002
vt 0.028983 0.313957
vt 0.100162 0.290653
vt 0.897948 0.454489
vt 0.713656 0.452444
vt 0.811463 0.422898
vt 0.902684 0.393544
vt 0.841279 0.359531
vt 0.982947 0.333762
vt 0.992570 0.364505
vt 0.988735 0.417759
vt 0.991309 0.455395
vt 0.731190 0.285566
vt 0.823909 0.313817
vt 0.639730 0.383128
vt 0.190283 0.647199
vt 0.224779 0.655117
vt 0.058861 0.230321
vt 0.104376 0.190857
vt 0.074727 0.151388
vt 0.201458 0.082998
vt 0.205263 0.265003
vt 0.038532 0.119885
vt 0.490245 0.511342
vt 0.490221 0.559312
vt 0.488426 0.613144
vt 0.566066 0.706373
vt 0.546001 0.749268
vt 0.534246 0.677898
vt 0.010111 0.613181
vt 0.839792 0.993395
vt 0.059850 0.830414
vt 0.050946 0.975316
vt 0.594800 0.589700
vt 0.593479 0.580567
vt 0.972172 0.675568
vt 0.896801 0.506864
vt 0.625349 0.502159
vt 0.035725 0.169429
vt 0.059111 0.077174
vt 0.653995 0.082430
vt 0.651501 0.267295
vt 0.021891 0.391234
vt 0.826980 0.288555
vt 0.957736 0.296429
vt 0.929861 0.477300
vt 0.436797 0.268400
vn -0.0412 -0.7064 -0.7066
vn -0.7568 0.1785 -0.6289
vn 0.7628 0.2004 -0.6148
vn -0.1523 0.9785 -0.1394
vn 0.3673 -0.7569 0.5406
vn -0.6909 -0.6930 0.2057
vn 0.7717 0.1452 0.6192
vn 0.2329 0.8248 -0.5152
vn -0.9990 -0.0088 -0.0435
vn -0.8664 -0.4553 0.2049
vn 0.8164 -0.5768 -0.0301
vn 0.9622 -0.2680 -0.0477
vn 0.2704 -0.9625 -0.0204
vn 0.2794 -0.6501 -0.7066
vn -0.4763 0.8729 0.1053
vn -0.9663 -0.2183 0.1365
vn 0.0984 -0.9900 0.1007
vn 0.6974 -0.6866 0.2056
vn -0.8301 0.4391 0.3438
vn -0.1131 -0.8263 -0.5518
vn 0.5815 -0.3702 -0.7244
vn 0.7479 0.6611 -0.0597
vn 0.4428 -0.8965 0.0129
vn -0.5973 -0.7300 0.3323
vn 0.4282 0.9031 0.0318
vn -0.4569 -0.8891 -0.0280
vn 0.6307 0.7760 0.0069
vn -0.4509 0.8926 -0.0058
vn 0.5684 -0.8226 -0.0154
vn 0.8766 -0.0093 0.4812
vn 0.3654 -0.9304 0.0290
vn 0.1465 0.9855 -0.0858
vn 0.2997 0.9475 -0.1114
vn 0.4595 0.8114 0.3612
vn 0.4894 0.4683 0.7357
vn -0.4662 0.5978 -0.6522
vn -0.2617 -0.5481 -0.7944
vn 0.9596 0.0850 -0.2683
vn -0.1279 0.6677 -0.7333
vn -0.9347 0.3510 0.0559
vn -0.1377 -0.9385 0.3166
vn -0.8523 0.1085 0.5117
vn 0.1025 0.9187 -0.3813
vn 0.9521 -0.1484 -0.2672
vn 0.4777 -0.8517 -0.2155
vn 0.1264 -0.0068 -0.9920
vn 0.5416 0.7842 -0.3028
vn -0.8840 -0.0195 -0.4671
vn 0.8960 0.3376 -0.2884
vn 0.9957 -0.0043 -0.0929
vn 0.1563 0.9817 0.1087
vn -0.3189 0.6675 0.6729
vn -0.9661 0.1618 0.2011
vn -0.3703 -0.9146 -0.1627
vn -0.4106 0.9114 0.0268
vn -0.1647 0.6899 -0.7049
vn -0.9821 -0.1417 -0.1240
vn -0.2612 -0.8821 -0.3919
vn 0.9824 0.1604 -0.0953
vn 0.3552 -0.3108 -0.8816
vn -0.8043 -0.0392 0.5930
vn -0.0006 0.7700 0.6381
usemtl 10436_Cactus_v1
s 1
f 1/1/1 27/2/2 29/3/3
f 29/4/3 27/2/2 3/5/4
f 6/6/5 7/7/6 4/8/7
f 53/9/8 8/10/9 52/11/10
f 24/12/11 9/13/12 21/14/13
f 53/15/8 52/16/10 17/17/14
f 7/18/6 12/19/15 13/20/16
f 14/21/17 37/22/18 4/8/7
f 19/23/19 52/16/10 16/24/20
f 15/25/21 9/26/12 10/27/22
f 37/22/18 14/21/17 11/28/23
f 20/29/24 11/28/23 14/21/17
f 16/30/20 21/31/13 11/28/23
f 9/26/12 15/25/21 21/31/13
f 19/23/19 12/19/15 18/32/25
f 12/19/15 19/23/19 13/20/16
f 20/33/24 14/34/17 13/20/16
f 13/20/16 14/34/17 7/18/6
f 16/35/20 23/36/26 21/37/13
f 16/35/20 8/10/9 23/36/26
f 10/38/22 26/39/27 25/40/28
f 3/5/4 27/2/2 25/40/28
f 8/10/9 25/40/28 27/2/2
f 29/41/3 26/39/27 24/12/11
f 24/12/11 23/42/26 28/43/29
f 28/44/29 23/36/26 1/45/1
f 36/46/30 37/47/18 33/48/31
f 34/49/32 15/50/21 22/51/33
f 38/52/34 34/49/32 22/51/33
f 34/49/32 38/52/34 35/53/35
f 38/52/34 37/47/18 35/53/35
f 32/54/36 31/55/37 33/48/31
f 36/46/30 39/56/38 34/49/32
f 30/57/39 34/49/32 39/56/38
f 33/48/31 31/55/37 39/56/38
f 42/58/40 41/59/41 44/60/42
f 44/60/42 45/61/43 42/58/40
f 43/62/44 45/63/43 11/64/23
f 41/59/41 11/64/23 20/65/24
f 20/65/24 44/60/42 41/59/41
f 44/60/42 19/66/19 45/61/43
f 58/67/45 48/68/46 47/69/47
f 46/70/48 48/71/46 58/72/45
f 51/73/49 55/74/50 50/75/51
f 49/76/52 50/75/51 56/77/53
f 52/78/10 49/76/52 56/77/53
f 52/78/10 19/79/19 49/76/52
f 51/73/49 49/76/52 18/80/25
f 53/81/8 51/73/49 18/80/25
f 55/82/50 57/83/54 58/72/45
f 54/84/55 55/74/50 47/69/47
f 58/72/45 57/83/54 46/70/48
f 46/70/48 56/77/53 54/84/55
f 22/85/33 18/32/25 12/19/15 38/86/34
f 47/69/47 55/74/50 58/67/45
f 45/61/43 62/87/56 42/58/40
f 59/88/57 61/89/58 41/59/41
f 62/87/56 59/88/57 42/58/40
f 41/59/41 60/90/59 43/62/44
f 62/87/56 45/61/43 60/91/59
f 60/90/59 61/89/58 40/92/60
f 6/93/5 2/94/61 7/18/6
f 2/94/61 12/19/15 7/18/6
f 2/94/61 5/95/62 12/19/15
f 5/96/62 2/97/61 4/98/7
f 4/98/7 2/97/61 6/6/5
f 38/86/34 5/95/62 4/8/7
f 52/11/10 8/10/9 16/35/20
f 12/19/15 5/95/62 38/86/34
f 38/86/34 4/8/7 37/22/18
f 4/8/7 7/7/6 14/21/17
f 13/20/16 19/23/19 20/33/24
f 22/85/33 53/15/8 18/32/25
f 15/25/21 37/22/18 11/28/23
f 21/31/13 15/25/21 11/28/23
f 53/15/8 22/85/33 10/27/22
f 22/85/33 15/25/21 10/27/22
f 10/27/22 25/99/28 53/15/8
f 9/13/12 24/12/11 26/39/27
f 26/39/27 10/38/22 9/13/12
f 21/14/13 23/100/26 24/12/11
f 27/2/2 23/36/26 8/10/9
f 3/5/4 25/40/28 26/39/27
f 28/43/29 29/41/3 24/12/11
f 23/36/26 27/101/2 1/45/1
f 29/41/3 28/43/29 1/102/1
f 26/39/27 29/4/3 3/5/4
f 8/10/9 53/9/8 25/40/28
f 39/56/38 31/103/37 30/104/39
f 34/49/32 35/53/35 36/46/30
f 37/47/18 15/105/21 33/48/31
f 34/49/32 32/106/36 15/50/21
f 15/105/21 32/54/36 33/48/31
f 36/46/30 35/53/35 37/47/18
f 33/48/31 39/56/38 36/46/30
f 30/57/39 31/107/37 32/106/36
f 32/106/36 34/49/32 30/57/39
f 59/88/57 40/108/60 61/89/58
f 62/87/56 40/108/60 59/88/57
f 60/90/59 40/92/60 62/109/56
f 41/59/41 43/62/44 11/64/23
f 44/60/42 20/65/24 19/66/19
f 11/64/23 45/63/43 16/110/20
f 16/111/20 45/61/43 19/66/19
f 46/70/48 47/69/47 48/112/46
f 56/77/53 50/75/51 54/84/55
f 55/82/50 51/113/49 57/83/54
f 57/83/54 51/113/49 17/114/14
f 52/78/10 56/77/53 57/83/54
f 52/78/10 57/83/54 17/114/14
f 51/73/49 50/75/51 49/76/52
f 19/79/19 18/80/25 49/76/52
f 17/115/14 51/73/49 53/81/8
f 54/84/55 50/75/51 55/74/50
f 57/83/54 56/77/53 46/70/48
f 47/69/47 46/70/48 54/84/55
f 41/59/41 42/58/40 59/88/57
f 43/116/44 60/91/59 45/61/43
f 60/90/59 41/59/41 61/89/58
