# Blender v2.93.6 OBJ File: 'Camel.blend'
# www.blender.org
mtllib Camel.mtl
o Camel_mesh.001
v 2.060830 1.434529 4.089887
v 1.370221 -1.181888 4.036639
v 0.600497 1.135880 -0.604342
v -3.399915 0.719849 -1.592653
v -3.822498 0.231449 -0.701462
v -2.113814 -0.772743 4.075889
v -3.962708 0.942465 4.080788
v 4.526348 -0.341302 -3.841486
v 5.953702 0.295991 -3.380987
v 0.613556 0.593105 -2.767031
v 0.591787 -0.755612 4.096272
v 5.238740 0.524502 -3.608299
v 1.590385 0.518092 0.042631
v 0.550207 -1.360416 4.107401
v 2.932353 1.212556 4.051003
v 2.361458 1.050756 3.644220
v -3.822326 -0.065095 -0.713545
v -4.687753 0.855004 4.094942
v 4.659722 0.291285 -4.099475
v 4.486010 -0.372206 -2.853927
v 6.228019 -0.134469 -2.788763
v 6.238563 0.273481 -2.936141
v 4.539912 0.386697 -3.851500
v 6.078208 -0.197949 -3.431593
v 5.793465 -0.016487 -2.873276
v 4.476182 0.427807 -3.036660
v 5.218284 -0.460745 -3.589816
v 4.229923 0.001257 -3.989176
v 4.921931 -0.311338 -4.040462
v 5.822402 0.014880 -3.744048
v 6.390912 0.056928 -3.279263
v 4.786353 -0.003155 -2.586377
v 4.157905 0.456777 -1.624622
v 3.409356 -0.081595 -1.711501
v 4.098904 -0.398538 -1.563853
v 3.839394 0.249998 -0.292626
v 3.067378 -0.007548 -1.573092
v 3.201272 0.403993 -1.197081
v 3.567120 -0.147645 0.051998
v 2.209025 0.804454 1.517364
v 2.159285 0.973010 4.022003
v 0.734966 0.778708 -0.003839
v 2.396245 1.210161 2.258410
v 2.216022 1.286375 3.609179
v 1.963997 1.380472 1.615222
v 1.838728 1.069472 1.535739
v 2.103026 0.725595 -0.274217
v 1.733043 1.430329 -0.082414
v 1.806552 -0.627641 -2.284383
v 2.232014 -0.608253 -0.709337
v -0.341417 0.335671 0.502257
v 1.834751 0.412662 -2.613160
v 0.698257 -1.045845 -0.702224
v 1.084799 -0.736160 1.369324
v 1.486693 -1.324587 -0.075848
v 1.618751 -0.389459 0.038773
v 0.822343 -0.966706 1.537458
v 1.218049 -1.326781 2.232802
v 0.871276 -1.011794 1.083792
v 0.522200 -1.034658 3.464580
v 0.762225 -1.191918 3.667308
v 0.770936 -0.909681 3.611335
v -0.393430 -0.262021 0.475439
v -0.723832 1.297013 -0.424131
v 1.466487 0.993925 -1.353994
v 1.382862 -0.872019 -1.387386
v 0.578786 -0.858423 -0.135429
v -0.494276 -1.368796 -1.428544
v -0.634330 1.484306 -1.383325
v -0.702005 -0.613045 -3.178115
v -0.625260 0.663851 -3.309313
v 0.051973 -0.509771 -3.010119
v -1.324508 -1.181021 -0.772068
v -2.002325 0.993233 -1.566760
v -1.994642 0.023886 -2.764278
v -0.842702 0.077775 -3.798684
v -2.067977 0.750358 -0.684813
v -2.571269 -0.250398 -0.492183
v -3.842704 -0.777074 -0.467292
v -3.100640 -0.483556 -1.997487
v -2.252855 -0.800352 -1.426913
v -2.142068 -0.626754 -0.666221
v -2.777894 -0.994286 -0.163279
v -2.729121 -0.570326 0.292100
v -3.718421 -0.427109 0.123635
v -3.890277 -0.767867 1.344726
v -3.651985 -0.538179 1.537751
v -4.028071 -0.624577 1.648968
v -3.665927 -0.732804 1.700291
v -2.592472 -0.580641 3.625269
v -2.829144 -0.625047 4.099286
v -2.706002 -0.836501 4.103034
v -4.018860 0.034444 -0.889613
v -2.289859 0.485382 -0.506161
v -3.857485 1.000459 0.583041
v -2.895077 0.771344 0.481843
v -2.626607 1.154464 -0.256963
v -3.794986 0.588998 0.067710
v -3.575593 0.594906 0.766732
v -4.462389 1.034383 1.456639
v -4.304571 0.771364 1.790106
v -4.868265 0.852461 1.744495
v -4.417843 0.882762 3.639713
v -4.477583 0.684194 4.061575
v -4.005219 0.083894 1.064021
vt 0.184685 0.914593
vt 0.184685 0.857995
vt 0.131713 0.860206
vt 0.000000 0.265198
vt 0.060793 0.326494
vt 0.062843 0.207339
vt 0.875154 0.398581
vt 0.925549 0.415239
vt 0.906011 0.373364
vt 0.925317 0.617538
vt 0.902898 0.571472
vt 0.873727 0.598757
vt 0.179369 0.764255
vt 0.193483 0.712947
vt 0.172949 0.711517
vt 0.088972 0.853113
vt 0.073037 0.824941
vt 0.000000 0.829846
vt 0.316470 0.947551
vt 0.343565 0.963035
vt 0.341763 0.924124
vt 0.146404 0.831754
vt 0.165671 0.855815
vt 0.186677 0.822352
vt 0.115645 0.732493
vt 0.469114 0.950394
vt 0.469114 0.870831
vt 0.435453 0.945055
vt 0.577908 0.830346
vt 0.528286 0.805074
vt 0.560399 0.854597
vt 0.581646 0.755124
vt 0.343565 0.862576
vt 0.532529 0.748238
vt 0.543850 0.716272
vt 0.598711 0.851520
vt 0.587201 0.881856
vt 0.598711 0.784001
vt 0.816581 0.455175
vt 0.776605 0.432566
vt 0.796252 0.539356
vt 0.054047 0.773119
vt 0.377608 0.535048
vt 0.386042 0.716551
vt 0.435453 0.638988
vt 0.917763 0.214144
vt 0.875154 0.128574
vt 0.883685 0.229589
vt 0.330522 0.430791
vt 0.355216 0.517714
vt 0.270617 0.531581
vt 0.425164 0.413664
vt 0.298185 0.365215
vt 0.984005 0.610077
vt 0.984005 0.427143
vt 0.960158 0.457141
vt 0.359794 0.358268
vt 0.476837 0.365215
vt 0.425006 0.319073
vt 0.991944 0.000000
vt 0.965362 0.119231
vt 0.991944 0.154535
vt 0.709316 0.625745
vt 0.666102 0.584655
vt 0.715649 0.727362
vt 0.729637 0.728758
vt 0.653753 0.284644
vt 0.614627 0.136780
vt 0.610062 0.273542
vt 0.585843 0.196883
vt 0.102806 0.300433
vt 0.845551 0.000000
vt 0.872003 0.143992
vt 0.875154 0.028813
vt 0.082164 0.520498
vt 0.094294 0.388098
vt 0.060188 0.405718
vt 0.529355 0.315271
vt 0.007307 0.510976
vt 0.471019 0.263051
vt 0.925317 0.871676
vt 0.956655 0.973851
vt 0.956655 0.850981
vt 0.237990 0.605933
vt 0.263628 0.551220
vt 0.247760 0.388098
vt 0.577657 0.603897
vt 0.541556 0.613245
vt 0.529355 0.694256
vt 0.598711 0.432566
vt 0.924113 0.989809
vt 0.924113 0.833613
vt 0.909612 0.976394
vt 0.265771 0.691039
vt 0.247567 0.710032
vt 0.525404 0.929291
vt 0.508737 0.963944
vt 0.525404 0.974547
vt 0.496769 0.870831
vt 0.469115 0.929291
vt 0.514743 0.929291
vt 0.508737 0.980944
vt 0.508737 0.929291
vt 0.469115 0.947001
vt 0.257004 0.265071
vt 0.174405 0.349174
vt 0.270617 0.357693
vt 0.413527 0.194079
vt 0.506864 0.242813
vt 0.134728 0.192270
vt 0.448838 0.121607
vt 0.529355 0.153563
vt 0.000000 0.711265
vt 0.046126 0.738973
vt 0.009355 0.653928
vt 0.572407 0.428227
vt 0.554098 0.411453
vt 0.529354 0.303301
vt 0.117442 0.096988
vt 0.270617 0.164823
vt 0.655704 0.432566
vt 0.705041 0.380764
vt 0.385049 0.057969
vt 0.437373 0.051616
vt 0.270617 0.191485
vt 0.089055 0.000000
vt 0.729637 0.653364
vt 0.753224 0.819957
vt 0.794060 0.732049
vt 0.812765 0.884920
vt 0.909612 0.934669
vt 0.909612 0.833613
vt 0.812764 0.641198
vt 0.816581 0.449124
vt 0.873727 0.543244
vt 0.873727 0.427143
vt 0.329385 0.000000
vt 0.393514 0.937647
vt 0.393514 0.856331
vt 0.357948 0.886950
vt 0.875154 0.413218
vt 0.875154 0.328667
vt 0.850056 0.356752
vt 0.095478 0.709613
vt 0.192075 0.711518
vt 0.170566 0.648832
vt 0.705041 0.324992
vt 0.789043 0.328339
vt 0.724834 0.195425
vt 0.094294 0.647832
vt 0.157262 0.542445
vt 0.921893 0.802009
vt 0.921893 0.641198
vt 0.889229 0.674897
vt 0.956656 0.836986
vt 0.981078 0.965936
vt 0.974539 0.853882
vt 0.969880 0.418770
vt 0.964029 0.293865
vt 0.953040 0.388644
vt 0.779607 0.000000
vt 0.754772 0.169207
vt 0.793344 0.000885
vt 0.925317 0.427143
vt 0.957543 0.219856
vt 0.926378 0.178995
vt 0.917763 0.219856
vt 0.518863 0.870831
vt 0.511400 0.753450
vt 0.489281 0.751003
vt 0.131713 0.871734
vt 0.106472 0.857995
vt 0.094294 0.902517
vt 0.778327 0.991328
vt 0.778327 0.823923
vt 0.729637 0.890472
vt 0.131713 0.956463
vt 0.821837 0.293478
vt 0.822257 0.344411
vt 0.842642 0.245202
vt 0.729637 0.728758
vt 0.629179 0.821024
vt 0.729637 0.833916
vt 0.469389 0.500778
vt 0.435453 0.611634
vt 0.490521 0.522731
vt 0.842642 0.002663
vt 0.793344 0.169353
vt 0.526963 0.610706
vt 0.518012 0.442592
vt 0.511643 0.579993
vt 0.823991 0.000000
vt 0.903505 0.968628
vt 0.897914 0.934669
vt 0.871485 0.968628
vt 0.925549 0.229589
vt 0.979825 0.208315
vt 0.979825 0.154535
vt 0.965362 0.167761
vt 0.082459 0.936301
vt 0.070719 0.853113
vt 0.000139 0.912991
vt 1.000000 0.848655
vt 1.000000 0.702523
vt 0.981078 0.835042
vt 0.316470 0.862576
vt 0.295523 0.866248
vt 0.316470 0.996396
vt 0.958848 0.624516
vt 0.990695 0.675802
vt 0.990695 0.610077
vt 0.636914 0.614069
vt 0.639168 0.432566
vt 0.604502 0.613504
vt 0.268598 0.875492
vt 0.268598 0.711518
vt 0.193483 0.828500
vt 0.883579 0.000000
vt 0.088972 0.796449
vt 0.193483 0.857995
vt 0.525765 0.823087
vt 0.518863 0.882390
vt 0.525765 0.901471
vt 0.847383 0.946304
vt 0.841165 0.976988
vt 0.871485 0.979961
vt 0.871485 0.934669
vt 0.246678 0.875492
vt 0.215780 0.922789
vt 0.246678 0.957443
vt 0.965362 0.178995
vt 0.965362 0.000000
vt 0.917763 0.115241
vt 0.094294 0.773154
vt 0.010144 0.742733
vt 0.265446 0.875492
vt 0.246678 0.943054
vt 0.265446 0.975617
vt 0.729637 0.577063
vt 0.998460 0.427143
vt 0.984005 0.555015
vt 0.998460 0.579365
vt 0.435453 0.538258
vt 0.816581 0.641198
vt 0.165323 0.978648
vt 0.165323 0.914593
vt 0.131713 0.941627
vt 0.917763 0.028494
vt 0.744496 0.597919
vt 0.428079 0.986957
vt 0.428079 0.856331
vt 0.393514 0.859076
vt 0.270617 0.757814
vt 0.357948 0.862576
vt 0.357948 0.716551
vt 0.889229 0.777587
vt 0.812765 0.699810
vt 0.826536 0.833613
vt 0.889229 0.641198
vt 0.598711 0.757751
vt 0.626822 0.883945
vt 0.626822 0.719357
vt 0.602970 0.873791
vt 0.528627 0.672814
vt 0.528627 0.610706
vt 0.511643 0.660477
vt 0.565128 0.945191
vt 0.565128 0.881856
vt 0.528286 0.888792
vt 0.842641 0.199502
vt 0.862380 0.298891
vt 0.685309 0.000000
vt 0.682324 0.145282
vt 0.729637 0.432566
vt 0.958848 0.603823
vt 0.841165 0.934669
vt 0.812765 0.950667
vt 0.841165 0.985582
vt 0.193255 0.952744
vt 0.193255 0.914593
vt 0.165323 0.940831
vt 0.875154 0.328667
vt 0.793344 0.362803
vt 0.849631 0.410492
vt 0.849631 0.344411
vt 0.778327 0.891225
vt 0.806907 0.968003
vt 0.806907 0.823923
vt 0.679497 0.863595
vt 0.717260 0.995721
vt 0.717260 0.833916
vt 0.598711 0.719357
vt 0.666102 0.719357
vt 0.629179 0.906765
vt 0.679497 0.979535
vt 0.679497 0.833916
vt 0.265771 0.425113
vt 0.598711 0.716272
vt 0.192075 0.443135
vt 0.925317 0.531946
vt 0.930544 0.702524
vt 0.958848 0.618633
vt 0.927848 0.702524
vt 0.958848 0.429944
vt 0.938594 0.427143
vt 0.588369 0.940745
vt 0.626822 0.940745
vt 0.600305 0.883945
vt 0.527456 0.823087
vt 0.527456 0.751003
vt 0.518863 0.773520
vt 0.584345 0.938316
vt 0.584345 0.881856
vt 0.565128 0.930704
vt 0.705041 0.229108
vt 0.089940 0.388098
vt 0.288038 0.241177
vt 0.094044 0.611499
vt 0.094294 0.713139
vt 0.051404 0.112920
vt 0.812765 0.823923
vt 0.465711 0.844676
vt 0.435453 0.870831
vt 0.378921 0.716551
vt 0.357948 0.823950
vt 0.431504 0.717438
vt 0.873394 0.641198
vt 0.371598 0.989779
vt 0.525638 0.738031
vt 0.525638 0.672814
vt 0.511643 0.725401
vt 0.431504 0.856330
vt 0.793344 0.432202
vt 0.969880 0.229589
vt 0.925549 0.258338
vt 0.192075 0.524053
vt 0.981078 0.702523
vt 0.715786 0.163037
vt 0.138690 0.388098
vt 0.969880 0.364951
vt 0.988690 0.401417
vt 0.988690 0.229589
vt 0.357280 0.862576
vt 0.343565 0.874660
vt 0.357280 0.916080
vt 0.841758 0.931410
vt 0.000000 0.936301
vt 0.511643 0.751003
vt 0.505217 0.585498
vt 0.435534 0.672140
vt 0.753003 0.949901
vt 0.215780 0.875492
vt 0.193483 0.957234
vt 0.215780 0.994270
vt 0.811837 0.260716
vt 0.295523 0.978453
vt 0.295523 0.862576
vt 0.270617 0.931988
vt 0.511643 0.492832
vt 0.526963 0.365215
vt 0.442600 0.365216
vt 0.997398 0.848655
vt 0.981078 0.862225
vt 0.997398 0.991189
vt 0.074599 0.738973
vn 0.9621 -0.1939 0.1917
vn -0.4819 -0.7468 0.4581
vn -0.9739 0.0012 -0.2270
vn -0.1019 0.2976 0.9492
vn -0.2988 0.5401 0.7867
vn -0.1626 0.8617 0.4806
vn -0.7634 0.2275 0.6046
vn 0.9353 0.2364 0.2633
vn 0.7091 0.7040 -0.0389
vn 0.9654 -0.1386 0.2206
vn 0.8127 0.4275 -0.3959
vn -0.5442 0.4605 0.7012
vn 0.2248 0.9237 -0.3103
vn -0.0910 0.5137 -0.8531
vn -0.9068 0.2836 -0.3117
vn -0.7813 -0.0019 -0.6241
vn -0.4283 -0.8379 -0.3382
vn -0.0478 -0.9928 0.1100
vn 0.4543 -0.4453 0.7716
vn 0.3848 0.7791 0.4949
vn -0.1155 0.0492 0.9921
vn 0.3202 0.9293 -0.1840
vn -0.1787 0.9812 0.0726
vn 0.4620 0.0239 -0.8866
vn 0.1499 -0.5244 -0.8381
vn 0.2012 -0.9698 -0.1379
vn 0.5219 -0.7481 -0.4098
vn 0.9471 0.0519 -0.3166
vn 0.7313 0.0285 0.6815
vn 0.3151 0.9456 0.0804
vn -0.3977 -0.7285 -0.5577
vn 0.3562 -0.9305 0.0851
vn 0.3930 -0.9175 0.0608
vn 0.0894 -0.1305 -0.9874
vn 0.3933 -0.7286 -0.5607
vn 0.4498 -0.3150 0.8357
vn 0.3648 -0.0113 0.9310
vn -0.8528 -0.3108 0.4196
vn -0.4711 -0.7244 0.5033
vn -0.2737 0.9305 -0.2434
vn 0.2442 -0.9443 -0.2205
vn 0.6929 0.6856 0.2233
vn 0.1258 -0.4954 0.8595
vn 0.9201 0.3893 -0.0435
vn -0.1925 0.9779 0.0809
vn 0.8049 -0.5302 -0.2663
vn -0.1386 -0.3608 0.9223
vn -0.0043 0.9841 0.1774
vn 0.3761 -0.9161 0.1385
vn 0.4385 0.4007 -0.8044
vn 0.1696 0.9486 -0.2671
vn 0.3968 -0.9088 0.1288
vn -0.0280 -0.9991 0.0295
vn 0.6002 0.5565 0.5745
vn -0.4189 -0.7222 0.5503
vn -0.9987 0.0326 0.0395
vn 0.7638 -0.5879 -0.2663
vn 0.9746 0.1144 0.1924
vn 0.4311 0.8536 -0.2923
vn 0.2163 -0.4554 0.8636
vn -0.3642 0.7758 0.5152
vn 0.2874 0.6182 -0.7316
vn 0.2659 0.9306 -0.2514
vn 0.0017 -0.9948 -0.1021
vn -0.0538 0.9929 -0.1059
vn -0.2736 -0.8971 0.3470
vn -0.0787 -0.7894 -0.6087
vn -0.1504 0.0070 -0.9886
vn 0.3560 -0.6025 -0.7143
vn 0.1235 -0.0359 0.9917
vn 0.1395 0.7765 0.6144
vn -0.1885 0.9705 -0.1500
vn -0.0190 0.7601 -0.6496
vn 0.0894 -0.6824 0.7255
vn -0.1900 -0.9698 -0.1528
vn -0.6098 0.6045 -0.5125
vn -0.5310 0.0165 -0.8472
vn 0.3975 0.8856 0.2401
vn -0.5582 -0.5233 -0.6438
vn 0.8365 0.1158 0.5355
vn 0.3030 -0.9392 0.1613
vn 0.3003 0.4508 0.8406
vn -0.3774 -0.0151 0.9259
vn -0.6193 0.7744 0.1289
vn -0.7725 -0.6273 -0.0981
vn -0.5713 -0.8202 -0.0291
vn 0.3430 0.9076 0.2419
vn 0.5475 -0.8357 -0.0423
vn -0.9487 0.1400 0.2835
vn -0.1747 -0.7977 0.5771
vn -0.7885 0.4410 0.4286
vn -0.8272 0.4526 -0.3328
vn 0.6963 -0.0490 0.7161
vn -0.8539 -0.4584 0.2463
vn -0.1033 -0.9699 0.2203
vn 0.6054 0.7808 0.1542
vn -0.1460 0.9872 -0.0647
vn 0.0142 -0.8687 0.4950
vn -0.9854 -0.0660 -0.1570
vn -0.9848 0.0851 -0.1515
vn -0.0661 0.0085 0.9978
vn 0.9639 0.0479 0.2619
vn -0.6234 0.6288 0.4648
vn 0.3676 0.9177 -0.1504
vn 0.6771 0.5128 0.5277
usemtl Material
s 1
f 2/1/1 14/2/2 60/3/3
f 51/4/4 42/5/5 64/6/6
f 18/7/7 7/8/8 103/9/9
f 6/10/10 90/11/11 91/12/12
f 12/13/13 19/14/14 23/15/15
f 28/16/16 8/17/17 20/18/18
f 21/19/19 22/20/20 25/21/21
f 25/22/21 22/23/20 9/24/22
f 9/24/22 12/13/13 26/25/23
f 26/25/23 12/13/13 23/15/15
f 28/26/16 26/27/23 19/28/14
f 30/29/24 12/30/13 9/31/22
f 25/22/21 9/24/22 26/25/23
f 29/32/25 12/30/13 30/29/24
f 27/33/26 21/19/19 25/21/21
f 19/34/14 29/32/25 28/35/16
f 24/36/27 30/29/24 31/37/28
f 30/29/24 24/36/27 27/38/26
f 32/39/29 26/40/23 33/41/30
f 27/42/26 20/18/18 8/17/17
f 34/43/31 28/44/16 20/45/18
f 32/46/29 35/47/32 20/48/18
f 50/49/33 37/50/34 34/43/31
f 37/50/34 50/49/33 49/51/35
f 50/49/33 39/52/36 56/53/37
f 46/54/38 41/55/39 44/56/40
f 49/57/35 50/58/33 66/59/41
f 39/60/36 47/61/42 13/62/43
f 43/63/44 45/64/45 44/65/40
f 44/65/40 16/66/46 43/63/44
f 63/67/47 13/68/43 51/69/4
f 51/69/4 13/68/43 42/70/5
f 3/71/48 64/6/6 42/5/5
f 47/72/42 40/73/49 13/74/43
f 52/75/50 38/76/51 37/77/34
f 55/78/52 66/59/41 50/58/33
f 49/79/35 52/75/50 37/77/34
f 66/59/41 55/78/52 53/80/53
f 54/81/54 67/82/55 57/83/56
f 58/84/57 57/85/56 53/86/53
f 54/87/54 59/88/58 56/89/37
f 62/90/59 59/88/58 54/87/54
f 62/91/59 57/92/56 60/93/3
f 60/94/3 57/85/56 61/95/60
f 11/96/61 62/97/59 60/98/3
f 2/99/1 11/100/61 14/101/2
f 60/102/3 14/103/2 11/104/61
f 10/105/62 65/106/63 52/107/50
f 66/59/41 53/80/53 68/108/64
f 68/108/64 53/80/53 67/109/55
f 65/106/63 10/105/62 69/110/65
f 73/111/66 67/109/55 63/112/47
f 70/113/67 76/114/68 72/115/69
f 63/67/47 51/69/4 94/116/70
f 77/117/71 51/69/4 64/118/6
f 74/119/72 69/110/65 71/120/73
f 82/121/74 73/122/66 63/67/47
f 74/119/72 64/6/6 69/110/65
f 81/123/75 73/111/66 82/124/74
f 77/117/71 94/116/70 51/69/4
f 70/125/67 68/108/64 81/123/75
f 4/126/76 74/119/72 71/120/73
f 4/127/76 71/128/73 75/129/77
f 97/130/78 74/131/72 4/132/76
f 80/133/79 4/127/76 75/129/77
f 70/134/67 75/135/77 76/136/68
f 70/125/67 81/123/75 80/137/79
f 82/138/74 84/139/80 83/140/81
f 84/141/80 82/142/74 78/143/82
f 78/144/82 17/145/83 85/146/84
f 79/147/85 83/148/81 86/149/86
f 84/150/80 78/144/82 87/151/87
f 89/152/88 83/153/81 84/154/80
f 89/155/88 84/156/80 87/157/87
f 88/158/89 85/159/84 86/160/86
f 91/161/12 89/162/88 92/163/90
f 90/11/11 88/164/89 91/12/12
f 90/165/11 6/166/10 92/167/90
f 94/168/70 5/169/91 17/170/83
f 94/171/70 77/172/71 97/173/78
f 95/174/92 4/175/76 5/176/91
f 97/173/78 96/177/93 94/171/70
f 98/178/94 5/179/91 99/180/95
f 94/181/70 99/182/95 5/183/91
f 101/184/96 96/185/93 100/186/97
f 104/187/98 102/188/99 99/180/95
f 104/189/98 101/190/96 103/191/9
f 104/187/98 18/192/7 102/188/99
f 104/193/98 103/194/9 7/195/8
f 18/7/7 103/9/9 102/196/99
f 7/197/8 18/198/7 104/199/98
f 4/200/76 80/201/79 93/202/100
f 93/203/100 105/204/101 5/205/91
f 17/206/83 5/207/91 105/208/101
f 41/209/39 15/210/102 1/211/103
f 40/212/49 41/213/39 46/214/38
f 3/215/48 45/216/45 48/217/104
f 32/46/29 39/218/36 35/47/32
f 8/17/17 28/16/16 29/219/25
f 9/24/22 22/23/20 31/220/28
f 26/221/23 23/222/15 19/223/14
f 27/42/26 8/17/17 29/219/25
f 31/224/28 22/225/20 21/226/19
f 12/30/13 29/32/25 19/34/14
f 31/37/28 30/29/24 9/31/22
f 31/224/28 21/226/19 24/227/27
f 27/228/26 24/229/27 21/230/19
f 28/231/16 34/232/31 26/233/23
f 25/22/21 26/25/23 32/234/29
f 20/18/18 27/42/26 25/235/21
f 25/236/21 32/237/29 20/238/18
f 26/40/23 37/239/34 33/41/30
f 26/240/23 34/241/31 37/242/34
f 34/43/31 20/45/18 35/243/32
f 32/39/29 33/41/30 36/244/105
f 33/245/30 37/246/34 38/247/51
f 39/218/36 32/46/29 36/248/105
f 34/43/31 35/243/32 50/49/33
f 36/244/105 33/41/30 38/249/51
f 35/243/32 39/52/36 50/49/33
f 47/250/42 39/251/36 36/252/105
f 65/253/63 38/254/51 52/255/50
f 38/256/51 47/257/42 36/258/105
f 38/256/51 65/259/63 47/257/42
f 42/260/5 45/261/45 3/262/48
f 45/261/45 42/260/5 46/263/38
f 44/264/40 15/265/102 16/266/46
f 15/267/102 44/268/40 1/269/103
f 40/73/49 43/270/44 16/271/46
f 39/272/36 13/68/43 56/273/37
f 47/274/42 45/64/45 43/63/44
f 43/270/44 40/73/49 47/72/42
f 45/275/45 46/54/38 44/56/40
f 41/276/39 16/277/46 15/278/102
f 1/279/103 44/280/40 41/281/39
f 16/271/46 41/282/39 40/73/49
f 47/283/42 65/284/63 48/285/104
f 56/286/37 59/287/58 50/288/33
f 56/273/37 13/68/43 63/67/47
f 48/289/104 45/290/45 47/291/42
f 46/214/38 42/292/5 40/212/49
f 40/212/49 42/292/5 13/293/43
f 55/294/52 50/295/33 59/296/58
f 67/297/55 53/86/53 57/85/56
f 56/89/37 67/298/55 54/87/54
f 58/84/57 53/86/53 55/299/52
f 58/300/57 55/301/52 59/302/58
f 57/85/56 58/84/57 61/95/60
f 62/303/59 54/81/54 57/83/56
f 62/304/59 61/305/60 58/300/57
f 58/300/57 59/302/58 62/304/59
f 62/306/59 11/307/61 2/308/1
f 2/309/1 60/310/3 61/311/60
f 62/312/59 2/313/1 61/314/60
f 63/67/47 67/315/55 56/273/37
f 65/106/63 3/71/48 48/316/104
f 49/57/35 66/59/41 72/317/69
f 64/6/6 3/71/48 69/110/65
f 69/110/65 3/71/48 65/106/63
f 10/318/62 52/75/50 72/115/69
f 52/75/50 49/79/35 72/115/69
f 68/108/64 72/317/69 66/59/41
f 73/111/66 68/108/64 67/109/55
f 71/319/73 10/318/62 76/114/68
f 76/114/68 10/318/62 72/115/69
f 71/120/73 69/110/65 10/105/62
f 77/320/71 64/6/6 74/119/72
f 75/129/77 71/128/73 76/321/68
f 68/108/64 73/111/66 81/123/75
f 82/121/74 63/67/47 94/116/70
f 72/317/69 68/108/64 70/125/67
f 94/168/70 78/322/82 82/323/74
f 17/170/83 78/322/82 94/168/70
f 93/324/100 80/325/79 79/326/85
f 80/327/79 75/135/77 70/134/67
f 81/328/75 82/138/74 83/140/81
f 93/329/100 79/330/85 17/331/83
f 79/326/85 80/325/79 81/332/75
f 81/333/75 83/148/81 79/147/85
f 17/334/83 79/335/85 85/159/84
f 85/159/84 79/335/85 86/160/86
f 78/144/82 85/146/84 87/151/87
f 86/149/86 83/148/81 89/162/88
f 85/146/84 88/336/89 87/151/87
f 86/149/86 89/162/88 91/161/12
f 90/337/11 89/155/88 87/157/87
f 88/338/89 86/149/86 91/161/12
f 87/151/87 88/336/89 90/339/11
f 90/340/11 92/341/90 89/342/88
f 91/343/12 92/344/90 6/345/10
f 74/131/72 97/130/78 77/346/71
f 5/347/91 4/200/76 93/202/100
f 4/348/76 95/349/92 97/350/78
f 95/174/92 5/176/91 98/351/94
f 94/352/70 96/353/93 99/354/95
f 95/349/92 100/186/97 97/350/78
f 97/350/78 100/186/97 96/185/93
f 95/355/92 98/178/94 99/180/95
f 96/356/93 101/357/96 99/358/95
f 100/186/97 95/349/92 102/359/99
f 95/355/92 99/180/95 102/188/99
f 104/189/98 99/360/95 101/190/96
f 101/184/96 100/186/97 103/361/9
f 103/361/9 100/186/97 102/359/99
f 93/362/100 17/363/83 105/364/101
f 29/219/25 30/365/24 27/42/26
