# Blender v2.93.6 OBJ File: ''
# www.blender.org
mtllib plakat.mtl
o Cube
v 1.000000 0.081518 -1.000000
v 1.000000 0.081518 1.000000
v -1.000000 0.081518 -1.000000
v -1.000000 0.081518 1.000000
v 1.000000 -0.081518 -1.000000
v 1.000000 -0.081518 1.000000
v -1.000000 -0.081518 -1.000000
v -1.000000 -0.081518 1.000000
vt 0.989949 0.989949
vt 0.989949 0.989949
vt 0.010051 0.989949
vt 0.010051 0.989949
vt 0.010051 0.010051
vt 0.010051 0.010051
vt 0.989949 0.010051
vt 0.989949 0.010051
vn 0.0000 0.0000 -1.0000
vn -1.0000 0.0000 0.0000
vn 0.0000 -1.0000 0.0000
vn 0.0000 0.0000 1.0000
vn 0.0000 1.0000 0.0000
vn 1.0000 0.0000 0.0000
usemtl Material
s off
f 1/1/1 5/2/1 7/3/1 3/4/1
f 4/5/2 3/4/2 7/3/2 8/6/2
f 8/6/3 7/3/3 5/2/3 6/7/3
f 6/7/4 2/8/4 4/5/4 8/6/4
f 2/8/5 1/1/5 3/4/5 4/5/5
f 6/7/6 5/2/6 1/1/6 2/8/6
