# Blender v2.93.6 OBJ File: ''
# www.blender.org
mtllib pyr.mtl
o Cone
v 0.961466 0.291658 0.283475
v 0.649293 0.791166 0.283397
v 0.098482 0.999899 0.283479
v -0.482468 0.902635 0.283397
v -0.886092 0.473626 0.283475
v -1.012594 0.000000 0.283460
v -0.791166 -0.649293 0.283397
v -0.291660 -0.961473 0.283479
v 0.197539 -0.993098 0.283438
v 0.555570 -0.831470 0.283483
v 0.841908 -0.562545 0.283438
v 0.999893 -0.098481 0.283476
v 0.000000 0.000000 -0.283483
vt 0.451311 0.966989
vt 0.497422 0.498819
vt 0.633982 0.948996
vt 0.867862 0.802831
vt 0.965595 0.544930
vt 0.920054 0.272918
vt 0.719183 0.083933
vt 0.497422 0.024702
vt 0.193410 0.128379
vt 0.047241 0.362258
vt 0.032434 0.591311
vt 0.108111 0.758948
vt 0.234027 0.893017
vt 0.521440 0.180667
vt 0.517651 0.296367
vt 0.550447 0.383337
vt 0.618247 0.446919
vt 0.726589 0.487694
vt 0.819333 0.478560
vt 0.931082 0.398610
vt 0.987694 0.273411
vt 0.956594 0.139573
vt 0.862590 0.039358
vt 0.749853 0.013070
vt 0.601390 0.068918
vn 0.4963 0.0489 -0.8668
vn 0.4280 0.2673 -0.8633
vn 0.1787 0.4719 -0.8633
vn -0.0832 0.4977 -0.8633
vn -0.3676 0.3457 -0.8633
vn -0.4844 0.1294 -0.8652
vn -0.4819 -0.1643 -0.8607
vn -0.2673 -0.4280 -0.8633
vn -0.0324 -0.5004 -0.8652
vn 0.2051 -0.4541 -0.8670
vn 0.3411 -0.3633 -0.8670
vn 0.4747 -0.1615 -0.8652
vn -0.0000 0.0000 1.0000
usemtl Material.001
s off
f 12/1/1 13/2/1 1/3/1
f 1/3/2 13/2/2 2/4/2
f 2/4/3 13/2/3 3/5/3
f 3/5/4 13/2/4 4/6/4
f 4/6/5 13/2/5 5/7/5
f 5/7/6 13/2/6 6/8/6
f 6/8/7 13/2/7 7/9/7
f 7/9/8 13/2/8 8/10/8
f 8/10/9 13/2/9 9/11/9
f 9/11/10 13/2/10 10/12/10
f 10/12/11 13/2/11 11/13/11
f 11/13/12 13/2/12 12/1/12
f 8/14/13 9/15/13 10/16/13 11/17/13 12/18/13 1/19/13 2/20/13 3/21/13 4/22/13 5/23/13 6/24/13 7/25/13
