# Blender v2.80 (sub 75) OBJ File: ''
# www.blender.org
mtllib bed.mtl
o Cube
v 2.301323 1.000000 -1.011448
v 2.031522 0.730199 -0.730024
v -2.301323 1.000000 -1.011448
v -2.031522 0.730199 -0.730024
v 2.301323 -1.000000 -1.011448
v 2.031522 -0.730199 -0.730024
v -2.301323 -1.000000 -1.011448
v -2.031522 -0.730199 -0.730024
v 2.301323 -1.000000 -0.730024
v -2.301323 -1.000000 -0.730024
v 2.301323 1.000000 -0.730024
v -2.301323 1.000000 -0.730024
v 2.199416 -0.898094 -0.730024
v -2.199416 -0.898094 -0.730024
v 2.199416 0.898094 -0.730024
v -2.199416 0.898094 -0.730024
v 2.025990 -0.898094 -0.730024
v -1.971930 -0.898094 -0.730024
v -2.199416 -0.675294 -0.730024
v -2.199416 0.731675 -0.730024
v 2.199416 0.688975 -0.730024
v 2.199416 -0.707133 -0.730024
v -2.035552 0.898094 -0.730024
v 2.059494 0.898094 -0.730024
v -1.971930 -0.898094 0.008198
v -2.199416 -0.898094 0.008198
v 2.199416 -0.707133 0.008198
v 2.199416 -0.898094 0.008198
v -2.199416 0.731675 0.008198
v -2.199416 0.898094 0.008198
v 2.059494 0.898094 0.008198
v 2.199416 0.898094 0.008198
v 2.031522 -0.730199 0.008198
v -2.031522 -0.730199 0.008198
v 2.031522 0.730199 0.008198
v -2.031522 0.730199 0.008198
v 2.025990 -0.898094 0.008198
v -2.199416 -0.675294 0.008198
v 2.199416 0.688975 0.008198
v -2.035552 0.898094 0.008198
v 1.926282 0.751602 -1.183694
v -2.081673 0.903139 -1.190586
v -2.081674 -0.903139 -1.190586
v 1.926280 -0.751602 -1.183694
v -2.301323 1.000000 -1.662965
v -2.301323 -1.000000 -1.662965
v -2.119863 1.000000 -1.662965
v 2.139531 -1.000000 -1.662965
v 2.301323 -1.000000 -1.662965
v 2.301323 1.000000 -1.662965
v 2.139532 1.000000 -1.662965
v -2.119864 -1.000000 -1.662965
v 2.139532 1.000000 -0.848741
v -2.119863 1.000000 -0.848741
v -2.119864 -1.000000 -0.848741
v 2.139531 -1.000000 -0.848741
v 2.072596 0.933064 -0.848741
v -2.113402 0.971462 -0.841849
v -2.113403 -0.971462 -0.841849
v 2.072594 -0.933064 -0.848741
v 1.039329 -0.751602 -1.183694
v 0.934900 0.751602 -1.183694
v 0.993590 -0.903139 -1.190586
v 2.042119 -0.867441 -1.183694
v 2.042120 0.867441 -1.183694
v 0.868106 0.903139 -1.190586
v 1.008523 -0.807079 -1.270223
v 1.960941 -0.807079 -1.270223
v 1.960942 0.807079 -1.270223
v 0.896386 0.807079 -1.270223
v 1.008523 -0.807079 -1.428788
v 1.960941 -0.807079 -1.428788
v 1.960942 0.807079 -1.428788
v 0.896386 0.807079 -1.428788
v 1.154797 -0.543666 -1.491400
v 1.796367 -0.543666 -1.491400
v 1.796368 0.543666 -1.491400
v 1.079259 0.543666 -1.491400
v 0.983285 -0.971462 -0.841849
v 0.878157 0.971462 -0.841849
v 0.763156 0.837476 -1.294115
v -1.972161 0.837476 -1.294115
v -1.972162 -0.837476 -1.294115
v 0.879517 -0.837476 -1.294115
vt 0.219187 0.693064
vt 0.219187 0.572731
vt 0.249265 0.572731
vt 0.249265 0.693063
vt 0.433829 0.556417
vt 0.446821 0.556417
vt 0.446821 0.676755
vt 0.433829 0.676755
vt 0.685652 0.415456
vt 0.672764 0.415445
vt 0.680215 0.404533
vt 0.680215 0.148255
vt 0.672764 0.138513
vt 0.685652 0.138525
vt 0.058621 0.154701
vt 0.126040 0.154701
vt 0.126040 0.399170
vt 0.058621 0.399170
vt 0.557463 0.138498
vt 0.570354 0.138521
vt 0.562901 0.148242
vt 0.562901 0.404509
vt 0.570354 0.415440
vt 0.557463 0.415417
vt 0.206195 0.572731
vt 0.206195 0.693064
vt 0.050870 0.144599
vt 0.050870 0.155034
vt 0.050870 0.395584
vt 0.050870 0.409272
vt 0.046165 0.415403
vt 0.046165 0.138468
vt 0.133791 0.144599
vt 0.124137 0.144599
vt 0.059685 0.144599
vt 0.138495 0.138468
vt 0.061155 0.409272
vt 0.126108 0.409272
vt 0.133791 0.409272
vt 0.138495 0.415403
vt 0.133791 0.399412
vt 0.133791 0.153018
vt 0.528073 0.796152
vt 0.520066 0.796159
vt 0.520066 0.752097
vt 0.528073 0.752090
vt 0.462698 0.759133
vt 0.470448 0.759135
vt 0.470448 0.803553
vt 0.462698 0.803551
vt 0.245406 0.760363
vt 0.245661 0.770465
vt 0.237655 0.770465
vt 0.439445 0.803550
vt 0.431693 0.803550
vt 0.431693 0.759132
vt 0.439445 0.759132
vt 0.297852 0.728854
vt 0.308354 0.728845
vt 0.308354 0.772907
vt 0.297852 0.772917
vt 0.502840 0.752264
vt 0.511656 0.752264
vt 0.511656 0.796682
vt 0.502840 0.796682
vt 0.318747 0.729018
vt 0.329033 0.729018
vt 0.329033 0.773436
vt 0.318747 0.773436
vt 0.485931 0.803126
vt 0.478193 0.803312
vt 0.478193 0.759239
vt 0.485931 0.759053
vt 0.547722 0.814325
vt 0.539971 0.814321
vt 0.539971 0.770259
vt 0.547722 0.770263
vt 0.210473 0.763659
vt 0.213007 0.773761
vt 0.202722 0.773761
vt 0.261291 0.768294
vt 0.253540 0.768383
vt 0.261291 0.758281
vt 0.202722 0.760074
vt 0.253726 0.758281
vt 0.223317 0.772103
vt 0.222026 0.762001
vt 0.229776 0.772103
vt 0.229776 0.759521
vt 0.237655 0.758975
vt 0.639943 0.748231
vt 0.632378 0.748244
vt 0.632378 0.704172
vt 0.639943 0.704158
vt 0.624708 0.748742
vt 0.616932 0.748743
vt 0.616932 0.704325
vt 0.624708 0.704324
vt 0.339002 0.729018
vt 0.348656 0.729018
vt 0.348656 0.773436
vt 0.339002 0.773436
vt 0.447197 0.759132
vt 0.454947 0.759133
vt 0.454947 0.803551
vt 0.447197 0.803550
vt 0.194349 0.819345
vt 0.187890 0.819356
vt 0.187890 0.775283
vt 0.194349 0.775272
vt 0.423936 0.803476
vt 0.416175 0.803170
vt 0.416175 0.759108
vt 0.423936 0.759414
vt 0.562566 0.770451
vt 0.570249 0.770451
vt 0.570249 0.814869
vt 0.562566 0.814869
vt 0.365150 0.773514
vt 0.357372 0.773117
vt 0.357372 0.729044
vt 0.365150 0.729441
vt 0.601840 0.734497
vt 0.601840 0.614159
vt 0.609309 0.614159
vt 0.609309 0.734497
vt 0.541753 0.696349
vt 0.541753 0.605907
vt 0.545747 0.602549
vt 0.545747 0.699667
vt 0.642927 0.415417
vt 0.642927 0.404499
vt 0.585540 0.734497
vt 0.585540 0.614159
vt 0.593917 0.614159
vt 0.593917 0.734497
vt 0.476898 0.556417
vt 0.476898 0.676755
vt 0.600198 0.404575
vt 0.600198 0.415493
vt 0.132197 0.614040
vt 0.132197 0.734378
vt 0.094608 0.734378
vt 0.094608 0.614040
vt 0.600198 0.138574
vt 0.600198 0.148308
vt 0.056542 0.614038
vt 0.056542 0.734370
vt 0.018954 0.734370
vt 0.018954 0.614038
vt 0.642927 0.148220
vt 0.642927 0.138485
vt 0.320066 0.380396
vt 0.321839 0.308529
vt 0.321839 0.128531
vt 0.323156 0.128141
vt 0.323156 0.384424
vt 0.232143 0.128531
vt 0.232143 0.314854
vt 0.233916 0.380396
vt 0.230826 0.384424
vt 0.230826 0.128141
vt 0.056861 0.615758
vt 0.056861 0.732656
vt 0.396321 0.624004
vt 0.396431 0.694663
vt 0.380064 0.694074
vt 0.380601 0.622186
vt 0.722885 0.375874
vt 0.722885 0.190842
vt 0.739253 0.191454
vt 0.739254 0.377775
vt 0.174187 0.613976
vt 0.174187 0.718357
vt 0.158723 0.722288
vt 0.158723 0.610010
vt 0.522584 0.558812
vt 0.522584 0.667493
vt 0.506483 0.671603
vt 0.506483 0.554700
vt 0.717761 0.369302
vt 0.717761 0.197723
vt 0.487406 0.184399
vt 0.487406 0.131032
vt 0.492754 0.124062
vt 0.494402 0.187151
vt 0.418011 0.131032
vt 0.412663 0.124062
vt 0.418011 0.190682
vt 0.411015 0.194702
vt 0.553067 0.602549
vt 0.553067 0.699667
vt 0.618498 0.647711
vt 0.618498 0.588064
vt 0.622143 0.586022
vt 0.622143 0.650071
vt 0.564381 0.696341
vt 0.564381 0.605892
vt 0.568374 0.602554
vt 0.568374 0.699679
vt 0.276250 0.790662
vt 0.276250 0.737296
vt 0.279889 0.735465
vt 0.279889 0.792769
vt 0.295372 0.658248
vt 0.295372 0.561126
vt 0.302974 0.576975
vt 0.302974 0.642398
vt 0.629406 0.586035
vt 0.629406 0.650084
vt 0.575694 0.602554
vt 0.575694 0.699679
vt 0.287151 0.735471
vt 0.287151 0.792776
vt 0.332592 0.576975
vt 0.336079 0.642398
vt 0.344517 0.658248
vt 0.339341 0.561126
vt 0.722992 0.127766
vt 0.738714 0.125925
vt 0.396431 0.872137
vt 0.380065 0.874062
vt 0.414047 0.201026
vt 0.491371 0.194024
vt 0.491371 0.365606
vt 0.414047 0.365606
vt 0.401551 0.700943
vt 0.401551 0.865514
vt 0.494402 0.372186
vt 0.411015 0.372186
vn 1.0000 0.0000 0.0000
vn -1.0000 0.0000 0.0000
vn 0.0000 -1.0000 -0.0000
vn 0.0000 0.0000 1.0000
vn 0.0000 1.0000 -0.0000
vn -0.9864 0.1643 0.0000
vn 0.9997 0.0240 0.0000
vn -0.1361 0.9907 0.0000
vn -0.0088 -1.0000 0.0000
vn 0.9424 0.3345 0.0000
vn -0.9995 0.0329 0.0000
vn -0.2385 -0.9712 0.0000
vn 0.3108 0.9505 0.0000
vn 0.0000 0.0000 -1.0000
vn 0.9283 -0.0000 0.3718
vn -0.0016 -0.1686 -0.9857
vn -0.0016 0.1734 -0.9849
vn 0.7296 -0.0000 -0.6839
vn 0.0307 0.9805 -0.1939
vn 0.0000 -0.9813 -0.1923
vn 0.9959 -0.0000 -0.0906
vn -0.9959 0.0000 -0.0906
vn 0.0000 -0.8445 -0.5356
vn 0.0031 0.0266 -0.9996
vn 0.0027 -0.0263 -0.9997
vn 0.1216 0.0084 -0.9925
vn 0.0000 0.8418 0.5397
vn -0.9264 -0.0644 0.3711
vn 0.0000 -0.8418 0.5397
vn 0.3556 -0.0000 -0.9346
vn -0.9976 -0.0693 0.0000
vn 0.0000 0.2313 -0.9729
vn -0.3555 -0.0247 -0.9344
vn 0.0000 -0.2313 -0.9729
vn 0.0340 -0.9806 -0.1931
vn 0.0000 0.9813 -0.1923
vn 0.0000 0.8445 -0.5356
vn 0.6862 0.0477 -0.7259
vn -0.6870 0.0000 -0.7267
usemtl Material
s off
f 1/1/1 5/2/1 49/3/1 50/4/1
f 12/5/2 3/6/2 7/7/2 10/8/2
f 10/9/3 7/10/3 55/11/3 56/12/3 5/13/3 9/14/3
f 6/15/4 2/16/4 4/17/4 8/18/4
f 11/19/5 1/20/5 53/21/5 54/22/5 3/23/5 12/24/5
f 9/25/1 5/2/1 1/1/1 11/26/1
f 13/27/4 17/28/4 18/29/4 14/30/4 10/31/4 9/32/4
f 15/33/4 21/34/4 22/35/4 13/27/4 9/32/4 11/36/4
f 14/30/4 19/37/4 20/38/4 16/39/4 12/40/4 10/31/4
f 16/39/4 23/41/4 24/42/4 15/33/4 11/36/4 12/40/4
f 17/43/3 13/44/3 28/45/3 37/46/3
f 2/16/4 6/15/4 22/35/4 21/34/4
f 24/47/6 2/48/6 35/49/6 31/50/6
f 4/17/4 2/16/4 24/42/4 23/41/4
f 33/51/4 37/52/4 28/53/4
f 19/37/4 8/18/4 4/17/4 20/38/4
f 4/54/7 23/55/7 40/56/7 36/57/7
f 17/28/4 6/15/4 8/18/4 18/29/4
f 14/58/3 18/59/3 25/60/3 26/61/3
f 13/62/1 22/63/1 27/64/1 28/65/1
f 19/66/2 14/67/2 26/68/2 38/69/2
f 22/70/8 6/71/8 33/72/8 27/73/8
f 20/74/9 4/75/9 36/76/9 29/77/9
f 34/78/4 38/79/4 26/80/4
f 29/81/4 36/82/4 30/83/4
f 25/84/4 34/78/4 26/80/4
f 40/85/4 30/83/4 36/82/4
f 31/86/4 35/87/4 32/88/4
f 39/89/4 32/88/4 35/87/4
f 27/90/4 33/51/4 28/53/4
f 23/91/5 16/92/5 30/93/5 40/94/5
f 18/95/10 8/96/10 34/97/10 25/98/10
f 21/99/1 15/100/1 32/101/1 39/102/1
f 6/103/11 17/104/11 37/105/11 33/106/11
f 15/107/5 24/108/5 31/109/5 32/110/5
f 2/111/12 21/112/12 39/113/12 35/114/12
f 16/115/2 20/116/2 29/117/2 30/118/2
f 8/119/13 19/120/13 38/121/13 34/122/13
f 50/123/14 49/124/14 48/125/14 51/126/14
f 41/127/15 44/128/15 68/129/15 69/130/15
f 55/11/3 7/10/3 46/131/3 52/132/3
f 47/133/14 52/134/14 46/135/14 45/136/14
f 7/7/2 3/6/2 45/137/2 46/138/2
f 3/23/5 54/22/5 47/139/5 45/140/5
f 56/141/2 53/142/2 51/143/2 48/144/2
f 53/21/5 1/20/5 50/145/5 51/146/5
f 54/147/1 55/148/1 52/149/1 47/150/1
f 5/13/3 56/12/3 48/151/3 49/152/3
f 57/153/16 80/154/16 58/155/16 54/156/16 53/157/16
f 59/158/17 79/159/17 60/160/17 56/161/17 55/162/17
f 60/160/14 57/153/14 53/157/14 56/161/14
f 58/163/18 59/164/18 55/148/18 54/147/18
f 65/165/19 66/166/19 80/167/19 57/168/19
f 43/169/20 63/170/20 79/171/20 59/172/20
f 64/173/21 65/174/21 57/175/21 60/176/21
f 42/177/22 43/178/22 59/179/22 58/180/22
f 63/170/23 43/169/23 83/181/23 84/182/23
f 61/183/24 44/184/24 64/185/24 63/186/24
f 44/184/14 41/187/14 65/188/14 64/185/14
f 41/187/25 62/189/25 66/190/25 65/188/25
f 62/189/26 61/183/26 63/186/26 66/190/26
f 69/130/1 68/129/1 72/191/1 73/192/1
f 62/193/27 41/194/27 69/195/27 70/196/27
f 61/197/28 62/198/28 70/199/28 67/200/28
f 44/201/29 61/202/29 67/203/29 68/204/29
f 73/205/30 72/206/30 76/207/30 77/208/30
f 70/196/5 69/195/5 73/209/5 74/210/5
f 67/200/31 70/199/31 74/211/31 71/212/31
f 68/204/3 67/203/3 71/213/3 72/214/3
f 77/208/14 76/207/14 75/215/14 78/216/14
f 74/217/32 73/205/32 77/208/32 78/216/32
f 71/218/33 74/217/33 78/216/33 75/215/33
f 72/206/34 71/218/34 75/215/34 76/207/34
f 79/171/35 63/170/35 64/219/35 60/220/35
f 80/167/36 66/166/36 42/221/36 58/222/36
f 81/223/14 84/224/14 83/225/14 82/226/14
f 42/221/37 66/166/37 81/227/37 82/228/37
f 66/190/38 63/186/38 84/224/38 81/223/38
f 43/229/39 42/230/39 82/226/39 83/225/39
