# Blender v2.80 (sub 75) OBJ File: ''
# www.blender.org
mtllib nozh.mtl
o Cube_Cube.001
v -1.000000 -1.000000 0.095933
v -0.747454 -0.747454 -0.095933
v 1.000000 -1.000000 0.095933
v 0.747454 -0.747454 -0.095933
v -1.000000 1.000000 0.095933
v -0.747454 0.747454 -0.095933
v 1.000000 1.000000 0.095933
v 0.747454 0.747454 -0.095933
v 1.000000 0.000000 0.095933
v 0.747454 0.000000 -0.095933
v -1.000000 0.000000 0.095933
v -0.747454 0.000000 -0.095933
v 0.000000 -1.000000 0.095933
v 0.000000 -0.747454 -0.095933
v 0.000000 1.000000 0.095933
v 0.000000 0.747454 -0.095933
v 0.000000 0.000000 -0.095933
v 0.000000 0.000000 0.095933
v 1.000000 -0.500000 0.095933
v -0.747454 -0.373727 -0.095933
v 0.747454 -0.373727 -0.095933
v -1.000000 -0.500000 0.095933
v 0.000000 -0.500000 0.095933
v 0.000000 -0.373727 -0.095933
v 0.747454 0.373727 -0.095933
v -1.000000 0.500000 0.095933
v 1.000000 0.500000 0.095933
v -0.747454 0.373727 -0.095933
v 0.000000 0.373727 -0.095933
v 0.000000 0.500000 0.095933
v 0.373727 -0.747454 -0.095933
v 0.500000 1.000000 0.095933
v 0.500000 -1.000000 0.095933
v 0.373727 0.747454 -0.095933
v 0.373727 0.000000 -0.095933
v 0.500000 0.000000 0.095933
v 0.500000 -0.500000 -2.134531
v 0.500000 -0.500000 0.095933
v 0.500000 0.500000 0.095933
v 0.500000 0.500000 -2.134531
v -0.500000 -1.000000 0.095933
v -0.373727 0.747454 -0.095933
v -0.373727 0.000000 -0.095933
v -0.500000 0.000000 0.095933
v -0.373727 -0.747454 -0.095933
v -0.500000 1.000000 0.095933
v -0.500000 -0.500000 0.095933
v -0.500000 -0.500000 -2.134531
v -0.500000 0.500000 -2.134531
v -0.500000 0.500000 0.095933
vt 0.375000 0.187500
vt 0.625000 0.187500
vt 0.625000 0.250000
vt 0.375000 0.250000
vt 0.375000 0.437500
vt 0.625000 0.437500
vt 0.625000 0.500000
vt 0.375000 0.500000
vt 0.375000 0.687500
vt 0.625000 0.687500
vt 0.625000 0.750000
vt 0.375000 0.750000
vt 0.375000 0.937500
vt 0.625000 0.937500
vt 0.625000 1.000000
vt 0.375000 1.000000
vt 0.312500 0.687500
vt 0.312500 0.750000
vt 0.812500 0.687500
vt 0.875000 0.687500
vt 0.875000 0.750000
vt 0.812500 0.750000
vt 0.687500 0.687500
vt 0.750000 0.687500
vt 0.750000 0.750000
vt 0.687500 0.750000
vt 0.187500 0.687500
vt 0.250000 0.687500
vt 0.250000 0.750000
vt 0.187500 0.750000
vt 0.375000 0.812500
vt 0.625000 0.812500
vt 0.625000 0.875000
vt 0.375000 0.875000
vt 0.375000 0.312500
vt 0.625000 0.312500
vt 0.625000 0.375000
vt 0.375000 0.375000
vt 0.187500 0.562500
vt 0.250000 0.562500
vt 0.250000 0.625000
vt 0.187500 0.625000
vt 0.687500 0.562500
vt 0.750000 0.562500
vt 0.750000 0.625000
vt 0.687500 0.625000
vt 0.812500 0.562500
vt 0.875000 0.562500
vt 0.875000 0.625000
vt 0.812500 0.625000
vt 0.312500 0.562500
vt 0.375000 0.562500
vt 0.375000 0.625000
vt 0.312500 0.625000
vt 0.625000 0.562500
vt 0.625000 0.625000
vt 0.375000 0.062500
vt 0.625000 0.062500
vt 0.625000 0.125000
vt 0.375000 0.125000
vt 0.125000 0.562500
vt 0.125000 0.625000
vt 0.125000 0.687500
vt 0.125000 0.750000
vt 0.687500 0.500000
vt 0.250000 0.500000
vt 0.312500 0.500000
vt 0.125000 0.500000
vt 0.187500 0.500000
vt 0.750000 0.500000
vt 0.812500 0.500000
vt 0.875000 0.500000
vt 0.375000 0.000000
vt 0.625000 0.000000
vn 0.0000 -0.6049 -0.7963
vn 0.6049 0.0000 -0.7963
vn 0.0000 0.6049 -0.7963
vn -0.6049 0.0000 -0.7963
vn 0.0000 0.0000 1.0000
vn -0.6969 -0.6969 -0.1692
vn -0.6845 -0.6845 -0.2510
vn -0.6681 -0.6681 -0.3277
vn -0.6681 0.6681 -0.3277
vn -0.6845 0.6845 -0.2510
vn -0.6969 0.6969 -0.1692
vn 0.6969 0.6969 -0.1692
vn 0.6845 0.6845 -0.2510
vn 0.6969 -0.6969 -0.1692
vn 0.6845 -0.6845 -0.2510
vn 0.6681 0.6681 -0.3277
vn 0.6681 -0.6681 -0.3277
usemtl None
s off
f 33/1/1 31/2/1 4/3/1 3/4/1
f 27/5/2 25/6/2 8/7/2 7/8/2
f 46/9/3 42/10/3 6/11/3 5/12/3
f 22/13/4 20/14/4 2/15/4 1/16/4
f 50/17/5 46/9/5 5/12/5 26/18/5
f 48/19/6 45/20/6 2/21/6 20/22/6
f 49/23/7 43/24/7 12/25/7 28/26/7
f 47/27/5 44/28/5 11/29/5 22/30/5
f 26/31/4 28/32/4 12/33/4 11/34/4
f 19/35/2 21/36/2 10/37/2 9/38/2
f 38/39/5 36/40/5 18/41/5 23/42/5
f 40/43/8 35/44/8 17/45/8 29/46/8
f 37/47/7 31/48/7 14/49/7 24/50/7
f 39/51/5 32/52/5 15/53/5 30/54/5
f 32/52/3 34/55/3 16/56/3 15/53/3
f 41/57/1 45/58/1 14/59/1 13/60/1
f 35/44/9 37/47/9 24/50/9 17/45/9
f 33/61/5 38/39/5 23/42/5 13/62/5
f 3/4/2 4/3/2 21/36/2 19/35/2
f 41/63/5 47/27/5 22/30/5 1/64/5
f 43/24/10 48/19/10 20/22/10 12/25/10
f 11/34/4 12/33/4 20/14/4 22/13/4
f 36/40/5 39/51/5 30/54/5 18/41/5
f 34/55/10 40/43/10 29/46/10 16/56/10
f 5/12/4 6/11/4 28/32/4 26/31/4
f 42/10/11 49/23/11 28/26/11 6/11/11
f 44/28/5 50/17/5 26/18/5 11/29/5
f 9/38/2 10/37/2 25/6/2 27/5/2
f 8/7/12 25/65/12 40/43/12 34/55/12
f 9/66/5 27/67/5 39/51/5 36/40/5
f 3/68/5 19/69/5 38/39/5 33/61/5
f 10/70/13 21/71/13 37/47/13 35/44/13
f 7/8/3 8/7/3 34/55/3 32/52/3
f 27/67/5 7/8/5 32/52/5 39/51/5
f 21/71/14 4/72/14 31/48/14 37/47/14
f 25/65/15 10/70/15 35/44/15 40/43/15
f 19/69/5 9/66/5 36/40/5 38/39/5
f 13/60/1 14/59/1 31/2/1 33/1/1
f 18/41/5 30/54/5 50/17/5 44/28/5
f 16/56/13 29/46/13 49/23/13 42/10/13
f 17/45/16 24/50/16 48/19/16 43/24/16
f 13/62/5 23/42/5 47/27/5 41/63/5
f 1/73/1 2/74/1 45/58/1 41/57/1
f 23/42/5 18/41/5 44/28/5 47/27/5
f 29/46/17 17/45/17 43/24/17 49/23/17
f 24/50/15 14/49/15 45/20/15 48/19/15
f 30/54/5 15/53/5 46/9/5 50/17/5
f 15/53/3 16/56/3 42/10/3 46/9/3
