# Blender v2.80 (sub 75) OBJ File: 'pech.blend'
# www.blender.org
mtllib pechka.mtl
o Cube
v -0.739165 2.217762 -0.809829
v -0.739165 2.217762 -0.182493
v -0.739165 -2.714310 -1.328254
v -0.739165 -2.714310 -0.317305
v 0.739165 2.321168 -1.992323
v 0.739165 2.321168 0.007677
v 0.739165 -2.996179 -1.992323
v 0.739165 -2.996179 0.007677
v 0.739165 -0.963971 -1.992323
v -0.739165 -2.120906 -0.317305
v 0.739165 -0.963971 0.007677
v -0.739165 -2.120906 -1.328254
v -0.298177 -2.537306 -3.806431
v 0.707708 -2.537306 -3.806431
v -0.298177 -1.438596 -3.806431
v 0.707708 -1.438595 -3.806431
v 0.661476 -2.889383 -3.535243
v 0.661476 -1.070767 -3.535243
v -0.661476 -1.070768 -3.535243
v -0.661476 -2.889383 -3.535243
v 0.778047 -3.049629 -3.648570
v -0.778047 -3.049629 -3.648570
v 0.778047 -0.910521 -3.648570
v -0.778047 -0.910522 -3.648570
v 0.661476 -1.070767 -3.049149
v -0.661476 -1.070768 -3.049149
v 0.661476 -2.889383 -3.049149
v -0.661476 -2.889383 -3.049149
v -0.581784 -1.445071 -2.000200
v -0.581783 -2.570083 -2.000200
v -0.729404 -2.703571 -2.138641
v -0.729881 -2.663189 -2.271762
v -0.730321 -2.597612 -2.394447
v -0.730707 -2.509361 -2.501981
v -0.731024 -2.401826 -2.590232
v -0.731259 -2.279140 -2.655808
v -0.731404 -2.146018 -2.696190
v -0.731453 -2.007576 -2.709825
v -0.731404 -1.869134 -2.696190
v -0.731259 -1.736012 -2.655808
v -0.731024 -1.613327 -2.590231
v -0.730707 -1.505792 -2.501980
v -0.730322 -1.417540 -2.394446
v -0.729882 -1.351964 -2.271760
v -0.729404 -1.311582 -2.138640
v 0.217799 -1.445071 -2.000200
v 0.217799 -2.570083 -2.000200
v 0.364426 -2.703571 -2.138641
v 0.363949 -2.663189 -2.271762
v 0.363509 -2.597612 -2.394447
v 0.363123 -2.509361 -2.501981
v 0.362807 -2.401826 -2.590232
v 0.362571 -2.279140 -2.655808
v 0.362426 -2.146018 -2.696190
v 0.362377 -2.007576 -2.709825
v 0.362426 -1.869134 -2.696190
v 0.362571 -1.736012 -2.655808
v 0.362806 -1.613327 -2.590231
v 0.363123 -1.505792 -2.501980
v 0.363508 -1.417540 -2.394446
v 0.363949 -1.351964 -2.271760
v 0.364426 -1.311582 -2.138640
v -0.739165 -2.996179 -1.992323
v -0.739165 -2.996179 0.007677
v -0.739165 1.894393 -0.809829
v -0.739165 1.894393 -0.182493
v -0.817341 -2.714310 -1.328254
v -0.817341 -2.714310 -0.317305
v -0.817341 -2.120906 -1.328254
v -0.817341 -2.120906 -0.317305
v -0.817341 -2.120906 -0.934231
v -0.817341 -2.120906 -0.869353
v -0.817341 -2.120906 -0.645116
v -0.817341 -2.120906 -0.576126
v -0.817341 -2.714310 -0.934231
v -0.817341 -2.714310 -0.869353
v -0.817341 -2.714310 -0.645116
v -0.817341 -2.714310 -0.576126
v -0.870880 -2.120906 -0.934231
v -0.870880 -2.120906 -0.869353
v -0.870880 -2.120906 -0.645116
v -0.870880 -2.120906 -0.576126
v -0.870880 -2.714310 -0.934231
v -0.870880 -2.714310 -0.869353
v -0.870880 -2.714310 -0.645116
v -0.870880 -2.714310 -0.576126
v -0.822515 -2.868391 -0.899825
v -0.822515 -2.868391 -0.847486
v -0.822515 -2.868391 -0.666586
v -0.822515 -2.868391 -0.610930
v -0.865706 -2.868391 -0.899825
v -0.865706 -2.868391 -0.847486
v -0.865706 -2.868391 -0.666586
v -0.865706 -2.868391 -0.610930
v -0.778047 -3.049629 -3.740223
v 0.778047 -3.049629 -3.740223
v -0.778047 -0.910522 -3.740223
v 0.778047 -0.910521 -3.740223
v -0.406492 -2.655616 -5.820564
v 0.816022 -2.655616 -5.820564
v -0.406492 -1.320285 -5.820564
v 0.816022 -1.320285 -5.820564
v -0.728908 -1.297947 -2.000200
v -0.728907 -2.717207 -2.000200
v 0.364923 -1.297947 -2.000200
v 0.364923 -2.717207 -2.000200
v -0.421332 -1.605523 -1.913034
v -0.421331 -2.409631 -1.913034
v 0.057347 -1.605523 -1.913034
v 0.057347 -2.409631 -1.913034
v -0.581784 -1.445071 -1.913034
v -0.581783 -2.570083 -1.913034
v 0.217799 -1.445071 -1.913034
v 0.217799 -2.570083 -1.913034
v -0.421332 -1.605523 -1.856512
v -0.421331 -2.409631 -1.856512
v 0.057347 -1.605523 -1.856512
v 0.057347 -2.409631 -1.856512
v -0.739165 2.321168 -1.992323
v -0.739165 2.321168 0.007677
v -0.739165 -0.963971 0.007677
v -0.739165 -0.963971 -1.992323
v -0.839112 2.217762 -0.809829
v -0.839112 2.217762 -0.182493
v -0.839112 1.894393 -0.182493
v -0.839112 1.894393 -0.809829
v 0.707708 -1.438595 -5.491673
v -0.298177 -1.438596 -5.491673
v -0.298177 -2.537306 -5.491673
v 0.707708 -2.537306 -5.491673
v 1.090356 -0.963971 0.007677
v 1.090356 -2.996179 0.007677
v 1.090356 -2.996179 -1.992323
v 1.090356 2.321168 -1.992323
v 1.090356 2.321168 0.007677
v 1.090356 -0.963971 -1.992323
vt 0.755073 0.518214
vt 0.637292 0.518212
vt 0.637292 0.222811
vt 0.755073 0.222813
vt 0.942104 0.041767
vt 0.940412 0.199692
vt 0.822635 0.198442
vt 0.824327 0.040516
vt 0.727096 0.759108
vt 0.727096 0.601173
vt 0.755076 0.601173
vt 0.755076 0.759108
vt 0.541976 0.518209
vt 0.424192 0.518209
vt 0.424192 0.222809
vt 0.541975 0.222809
vt 0.199228 0.840162
vt 0.199228 0.889701
vt 0.191265 0.889701
vt 0.191265 0.840162
vt 0.609312 0.759108
vt 0.609312 0.601173
vt 0.796533 0.937674
vt 0.876676 0.937674
vt 0.885305 0.964516
vt 0.787904 0.964516
vt 0.609312 0.518211
vt 0.609312 0.222810
vt 0.150767 0.772408
vt 0.150767 0.602758
vt 0.158062 0.602756
vt 0.158063 0.772407
vt 0.424192 0.061637
vt 0.541975 0.061637
vt 0.178280 0.730232
vt 0.178280 0.650400
vt 0.184508 0.650400
vt 0.184508 0.681515
vt 0.184508 0.686639
vt 0.184508 0.704346
vt 0.184508 0.709794
vt 0.184508 0.730232
vt 0.915467 0.404281
vt 0.791488 0.404281
vt 0.791488 0.397044
vt 0.915467 0.397044
vt 0.818132 0.329584
vt 0.942104 0.330901
vt 0.942026 0.338138
vt 0.818054 0.336821
vt 0.555311 0.772401
vt 0.555311 0.602749
vt 0.562612 0.602749
vt 0.562612 0.772401
vt 0.505233 0.768163
vt 0.505233 0.606990
vt 0.548504 0.606991
vt 0.548504 0.768164
vt 0.821765 0.279638
vt 0.939542 0.280888
vt 0.939082 0.323780
vt 0.821305 0.322529
vt 0.912369 0.454263
vt 0.794586 0.454263
vt 0.794586 0.411369
vt 0.912369 0.411369
vt 0.100647 0.768166
vt 0.100647 0.606993
vt 0.143882 0.606986
vt 0.143882 0.768159
vt 0.018800 0.768179
vt 0.018800 0.607006
vt 0.912369 0.535464
vt 0.794586 0.535464
vt 0.423932 0.746038
vt 0.434961 0.744956
vt 0.423319 0.768162
vt 0.099844 0.978242
vt 0.099023 0.951756
vt 0.099844 0.817069
vt 0.445566 0.741754
vt 0.434961 0.634558
vt 0.423932 0.633477
vt 0.423319 0.606989
vt 0.445566 0.637761
vt 0.455340 0.642962
vt 0.455340 0.736553
vt 0.463907 0.649962
vt 0.463907 0.729554
vt 0.470938 0.658490
vt 0.470938 0.721026
vt 0.476162 0.668220
vt 0.476162 0.711295
vt 0.479379 0.678778
vt 0.479379 0.700738
vt 0.480465 0.689758
vt 0.099023 0.839196
vt 0.927640 0.794740
vt 0.938259 0.794729
vt 0.938259 0.881480
vt 0.927640 0.881491
vt 0.949294 0.794725
vt 0.949294 0.881476
vt 0.564055 0.893825
vt 0.553196 0.893863
vt 0.553196 0.807112
vt 0.564055 0.807074
vt 0.340802 0.807100
vt 0.351019 0.807135
vt 0.351019 0.893886
vt 0.340802 0.893851
vt 0.960319 0.794729
vt 0.960319 0.881480
vt 0.542978 0.893898
vt 0.542978 0.807147
vt 0.533795 0.893928
vt 0.533795 0.807177
vt 0.361878 0.807173
vt 0.361878 0.893924
vt 0.372961 0.807212
vt 0.372961 0.893964
vt 0.970913 0.794740
vt 0.970913 0.881491
vt 0.909249 0.794784
vt 0.917845 0.794759
vt 0.917845 0.881510
vt 0.909249 0.881535
vt 0.198039 0.761499
vt 0.198039 0.824913
vt 0.191124 0.824913
vt 0.191124 0.761499
vt 0.980666 0.794759
vt 0.980666 0.881510
vt 0.989206 0.794784
vt 0.989206 0.881535
vt 0.575138 0.893785
vt 0.575138 0.807034
vt 0.331619 0.807070
vt 0.331619 0.893821
vt 0.164856 0.811588
vt 0.175885 0.810507
vt 0.175885 0.923067
vt 0.164856 0.921986
vt 0.154251 0.918783
vt 0.135910 0.906583
vt 0.120438 0.855807
vt 0.144477 0.913582
vt 0.154251 0.814790
vt 0.123655 0.888324
vt 0.120438 0.877766
vt 0.128880 0.835519
vt 0.144477 0.819991
vt 0.135910 0.826990
vt 0.123655 0.845249
vt 0.119352 0.866786
vt 0.128880 0.898054
vt 0.047397 0.495859
vt 0.127931 0.495860
vt 0.180832 0.518215
vt 0.021509 0.518213
vt 0.127931 0.448797
vt 0.180832 0.357042
vt 0.047397 0.448796
vt 0.021509 0.357040
vt 0.383192 0.756244
vt 0.362574 0.756244
vt 0.362574 0.709181
vt 0.383192 0.709181
vt 0.588486 0.590624
vt 0.588486 0.670456
vt 0.582258 0.670456
vt 0.582258 0.650017
vt 0.582258 0.644569
vt 0.582258 0.626862
vt 0.582258 0.621739
vt 0.582258 0.590624
vt 0.910710 0.746583
vt 0.910710 0.699521
vt 0.916938 0.699521
vt 0.916938 0.746584
vt 0.588486 0.687586
vt 0.588486 0.734649
vt 0.582258 0.734649
vt 0.582258 0.687586
vt 0.188774 0.704346
vt 0.188774 0.709794
vt 0.197137 0.586207
vt 0.197137 0.633270
vt 0.179274 0.633269
vt 0.179274 0.586207
vt 0.189318 0.842238
vt 0.189318 0.889300
vt 0.185053 0.889300
vt 0.185053 0.842238
vt 0.395416 0.586233
vt 0.395416 0.633296
vt 0.364028 0.633296
vt 0.364028 0.586233
vt 0.581643 0.850375
vt 0.582995 0.803331
vt 0.588488 0.803488
vt 0.587137 0.850531
vt 0.398561 0.853794
vt 0.399949 0.900836
vt 0.394783 0.900987
vt 0.393395 0.853945
vt 0.928038 0.713385
vt 0.923772 0.713385
vt 0.924173 0.701170
vt 0.927614 0.701170
vt 0.918355 0.760463
vt 0.918355 0.713401
vt 0.922621 0.713401
vt 0.922621 0.760463
vt 0.933455 0.713383
vt 0.933455 0.760445
vt 0.929189 0.760445
vt 0.929189 0.713383
vt 0.929602 0.701170
vt 0.933043 0.701170
vt 0.188774 0.681515
vt 0.188774 0.686639
vt 0.923772 0.760447
vt 0.928038 0.760447
vt 0.403559 0.580473
vt 0.403559 0.584868
vt 0.400118 0.584868
vt 0.400118 0.580473
vt 0.403559 0.586019
vt 0.403559 0.590152
vt 0.400118 0.590152
vt 0.400118 0.586019
vt 0.588488 0.862795
vt 0.584056 0.862669
vt 0.780925 0.568254
vt 0.775485 0.569001
vt 0.776536 0.556519
vt 0.780925 0.555917
vt 0.918785 0.701172
vt 0.922226 0.701172
vt 0.185465 0.830007
vt 0.188906 0.830007
vt 0.782349 0.555916
vt 0.787461 0.556644
vt 0.787461 0.568990
vt 0.783337 0.568402
vt 0.395782 0.841650
vt 0.399949 0.841528
vt 0.304787 0.643433
vt 0.224646 0.643431
vt 0.219077 0.602783
vt 0.343054 0.602785
vt 0.304787 0.730570
vt 0.343054 0.772436
vt 0.224646 0.730569
vt 0.219077 0.772433
vt 0.215489 0.809636
vt 0.312889 0.809638
vt 0.312889 0.915542
vt 0.215489 0.915540
vt 0.506435 0.843735
vt 0.426293 0.843735
vt 0.417663 0.816893
vt 0.515065 0.816893
vt 0.613417 0.935647
vt 0.700955 0.935647
vt 0.710387 0.961875
vt 0.603997 0.961875
vt 0.886053 0.627885
vt 0.798516 0.627884
vt 0.789117 0.601447
vt 0.895507 0.601447
vt 0.087301 0.940088
vt 0.087301 0.850864
vt 0.023597 0.850863
vt 0.023597 0.940086
vt 0.011876 0.951755
vt 0.011876 0.839194
vt 0.181952 0.746135
vt 0.181952 0.784099
vt 0.177468 0.784099
vt 0.177468 0.746135
vt 0.393447 0.740919
vt 0.393447 0.651696
vt 0.400385 0.651695
vt 0.400385 0.740918
vt 0.198072 0.651668
vt 0.198072 0.740892
vt 0.191128 0.740892
vt 0.191128 0.651668
vt 0.400359 0.761526
vt 0.400359 0.824940
vt 0.393444 0.824940
vt 0.393444 0.761526
vt 0.969390 0.668397
vt 0.969390 0.604624
vt 0.982173 0.591899
vt 0.982173 0.681122
vt 0.931253 0.604623
vt 0.931253 0.668396
vt 0.918469 0.681121
vt 0.918469 0.591897
vt 0.729898 0.852812
vt 0.729898 0.789039
vt 0.768035 0.789039
vt 0.768035 0.852813
vt 0.185084 0.813393
vt 0.185084 0.749620
vt 0.189583 0.749619
vt 0.189583 0.813392
vt 0.391086 0.711437
vt 0.391086 0.775211
vt 0.386583 0.775210
vt 0.386583 0.711437
vt 0.582022 0.784091
vt 0.582022 0.746127
vt 0.586506 0.746127
vt 0.586506 0.784091
vt 0.086632 0.095330
vt 0.036658 0.095330
vt 0.021509 0.061638
vt 0.180832 0.061640
vt 0.036658 0.120976
vt 0.086632 0.120976
vt 0.389032 0.646365
vt 0.389032 0.696112
vt 0.363268 0.696112
vt 0.363269 0.646366
vt 0.379618 0.851566
vt 0.379618 0.802027
vt 0.387581 0.802027
vt 0.387581 0.851566
vt 0.368828 0.766060
vt 0.368828 0.791706
vt 0.360865 0.791706
vt 0.360865 0.766060
vt 0.378941 0.766060
vt 0.378941 0.791706
vt 0.370978 0.791706
vt 0.370978 0.766060
vt 0.886075 0.761410
vt 0.798537 0.761410
vt 0.613419 0.802011
vt 0.700957 0.802011
vt 0.506435 0.976815
vt 0.426293 0.976815
vt 0.796533 0.804595
vt 0.876676 0.804595
vt 0.383023 0.518213
vt 0.223831 0.518239
vt 0.223831 0.357066
vt 0.383023 0.357041
vt 0.223831 0.061666
vt 0.383023 0.061641
vt 0.569956 0.222809
vt 0.569956 0.518209
vt 0.794656 0.198145
vt 0.796348 0.040219
vt 0.637292 0.061638
vt 0.609312 0.061638
vt 0.569956 0.061637
vn -0.0000 0.0000 -1.0000
vn 0.0000 -1.0000 0.0000
vn 0.0000 1.0000 0.0000
vn 0.0000 0.0000 1.0000
vn -0.0000 0.9410 0.3385
vn 1.0000 0.0000 0.0000
vn -1.0000 0.0000 0.0000
vn -0.6971 0.0000 0.7170
vn 0.0000 -0.5774 0.8165
vn -0.0000 0.5774 0.8165
vn 0.6971 0.0000 0.7170
vn 0.9973 0.0000 -0.0733
vn -0.0000 0.9949 -0.1005
vn 0.0000 -0.9949 -0.1005
vn -0.9993 0.0369 0.0072
vn -0.6091 0.0000 -0.7931
vn -0.9990 0.0414 0.0161
vn -0.9995 -0.0309 0.0066
vn -0.9966 0.0312 -0.0764
vn -0.9993 -0.0339 0.0139
vn -0.9964 -0.0368 -0.0770
vn -0.9935 0.1015 -0.0507
vn -0.9924 -0.1101 -0.0553
vn -0.9948 0.0801 -0.0622
vn -0.9941 -0.0854 -0.0665
vn -0.9951 0.0643 -0.0748
vn -0.9946 -0.0676 -0.0789
vn -0.9946 0.0505 -0.0910
vn -0.9941 -0.0526 -0.0948
vn -0.9927 0.0360 -0.1152
vn -0.9923 -0.0370 -0.1186
vn -0.9868 -0.0162 -0.1613
vn -0.9871 0.0160 -0.1593
vn -0.9794 0.0000 -0.2020
vn -0.6090 -0.0000 -0.7931
vn 0.0000 -0.2903 0.9569
vn 0.0000 -0.0980 0.9952
vn 0.0000 -0.9569 0.2903
vn 0.0000 0.8819 0.4714
vn 0.0000 0.0980 0.9952
vn 0.0000 -0.8819 0.4714
vn 0.0000 -0.7730 0.6344
vn 0.0000 0.9569 0.2903
vn 0.0000 0.9952 0.0980
vn 0.0000 0.2903 0.9569
vn 0.0000 -0.6344 0.7730
vn 0.0000 0.4714 0.8819
vn 0.0000 0.6344 0.7730
vn 0.0000 -0.4714 0.8819
vn 0.0000 -0.9952 0.0980
vn 0.0000 0.7730 0.6344
vn -1.0000 -0.0000 0.0036
vn 0.0000 0.1380 -0.9904
vn 0.0000 0.1405 0.9901
vn -0.9994 -0.0336 0.0000
vn 0.9994 -0.0336 0.0000
vn 0.0000 -0.2179 -0.9760
vn 0.0000 -0.2203 0.9754
vn 0.0000 -0.1282 -0.9918
vn -0.1367 0.0000 -0.9906
vn 0.6854 0.0000 -0.7282
vn -0.0000 0.1244 -0.9922
vn 0.0000 -0.9410 0.3385
vn -0.9498 0.0000 0.3128
vn 0.9498 0.0000 0.3128
usemtl Material
s off
f 119/1/1 5/2/1 9/3/1 122/4/1
f 64/5/2 63/6/2 7/7/2 8/8/2
f 5/9/3 6/10/3 135/11/3 134/12/3
f 6/13/4 120/14/4 121/15/4 11/16/4
f 65/17/2 66/18/2 125/19/2 126/20/2
f 6/10/3 5/9/3 119/21/3 120/22/3
f 128/23/5 127/24/5 102/25/5 101/26/5
f 9/3/1 5/2/1 134/27/1 136/28/1
f 23/29/6 21/30/6 96/31/6 98/32/6
f 11/16/4 121/15/4 64/33/4 8/34/4
f 10/35/3 12/36/3 69/37/3 71/38/3 72/39/3 73/40/3 74/41/3 70/42/3
f 24/43/3 23/44/3 98/45/3 97/46/3
f 21/47/2 22/48/2 95/49/2 96/50/2
f 22/51/7 24/52/7 97/53/7 95/54/7
f 28/55/7 26/56/7 19/57/7 20/58/7
f 27/59/2 28/60/2 20/61/2 17/62/2
f 26/63/3 25/64/3 18/65/3 19/66/3
f 25/67/6 27/68/6 17/69/6 18/70/6
f 20/58/8 19/57/8 24/52/8 22/51/8
f 17/62/9 20/61/9 22/48/9 21/47/9
f 19/66/10 18/65/10 23/44/10 24/43/10
f 18/70/11 17/69/11 21/30/11 23/29/11
f 9/71/12 7/72/12 27/68/12 25/67/12
f 122/73/13 9/74/13 25/64/13 26/63/13
f 7/7/14 63/6/14 28/60/14 27/59/14
f 104/75/15 31/76/15 63/77/15
f 122/78/16 103/79/16 63/80/16
f 63/77/17 31/76/17 32/81/17
f 45/82/18 103/83/18 122/84/18
f 122/84/19 26/56/19 44/85/19
f 45/82/20 122/84/20 44/85/20
f 28/55/21 63/77/21 32/81/21
f 43/86/22 44/85/22 26/56/22
f 28/55/23 32/81/23 33/87/23
f 42/88/24 43/86/24 26/56/24
f 28/55/25 33/87/25 34/89/25
f 41/90/26 42/88/26 26/56/26
f 28/55/27 34/89/27 35/91/27
f 40/92/28 41/90/28 26/56/28
f 28/55/29 35/91/29 36/93/29
f 39/94/30 40/92/30 26/56/30
f 28/55/31 36/93/31 37/95/31
f 28/55/32 37/95/32 38/96/32
f 38/96/33 39/94/33 26/56/33
f 28/55/34 38/96/34 26/56/34
f 103/79/35 104/97/35 63/80/35
f 40/98/36 39/99/36 56/100/36 57/101/36
f 39/99/37 38/102/37 55/103/37 56/100/37
f 45/104/38 44/105/38 61/106/38 62/107/38
f 33/108/39 32/109/39 49/110/39 50/111/39
f 38/102/40 37/112/40 54/113/40 55/103/40
f 44/105/41 43/114/41 60/115/41 61/106/41
f 43/114/42 42/116/42 59/117/42 60/115/42
f 32/109/43 31/118/43 48/119/43 49/110/43
f 31/118/44 104/120/44 106/121/44 48/119/44
f 37/112/45 36/122/45 53/123/45 54/113/45
f 42/124/46 41/125/46 58/126/46 59/127/46
f 29/128/2 46/129/2 113/130/2 111/131/2
f 36/122/47 35/132/47 52/133/47 53/123/47
f 35/132/48 34/134/48 51/135/48 52/133/48
f 41/125/49 40/98/49 57/101/49 58/126/49
f 103/136/50 45/104/50 62/107/50 105/137/50
f 34/138/51 33/108/51 50/111/51 51/139/51
f 48/140/52 106/141/52 105/142/52
f 62/143/52 61/144/52 105/142/52
f 59/145/52 54/146/52 60/147/52
f 49/148/52 48/140/52 61/144/52
f 49/148/52 61/144/52 60/147/52
f 59/145/52 57/149/52 56/150/52
f 60/147/52 54/146/52 52/151/52
f 52/151/52 50/152/52 49/148/52
f 49/148/52 60/147/52 52/151/52
f 52/151/52 51/153/52 50/152/52
f 61/144/52 48/140/52 105/142/52
f 54/146/52 59/145/52 56/150/52
f 54/146/52 53/154/52 52/151/52
f 55/155/52 54/146/52 56/150/52
f 59/145/52 58/156/52 57/149/52
f 4/157/7 3/158/7 63/159/7 64/160/7
f 3/158/7 12/161/7 122/162/7 63/159/7
f 10/163/7 4/157/7 64/160/7 121/164/7
f 12/161/7 10/163/7 121/164/7 122/162/7
f 70/165/7 74/166/7 78/167/7 68/168/7
f 3/169/2 4/170/2 68/171/2 78/172/2 77/173/2 76/174/2 75/175/2 67/176/2
f 12/177/1 3/178/1 67/179/1 69/180/1
f 4/181/4 10/182/4 70/183/4 68/184/4
f 74/41/3 73/40/3 81/185/3 82/186/3
f 77/187/7 73/188/7 72/189/7 76/190/7
f 78/191/4 74/192/4 82/193/4 86/194/4
f 75/195/7 71/196/7 69/197/7 67/198/7
f 86/199/7 82/200/7 81/201/7 85/202/7
f 84/203/7 80/204/7 79/205/7 83/206/7
f 85/207/53 77/208/53 89/209/53 93/210/53
f 71/211/1 75/212/1 83/213/1 79/214/1
f 76/215/4 72/216/4 80/217/4 84/218/4
f 76/215/54 84/218/54 92/219/54 88/220/54
f 72/39/3 71/38/3 79/221/3 80/222/3
f 73/223/1 77/208/1 85/207/1 81/224/1
f 89/225/2 90/226/2 94/227/2 93/228/2
f 87/229/2 88/230/2 92/231/2 91/232/2
f 86/199/55 85/202/55 93/233/55 94/234/55
f 77/235/56 78/236/56 90/237/56 89/238/56
f 83/213/57 75/212/57 87/239/57 91/240/57
f 78/191/58 86/194/58 94/241/58 90/242/58
f 75/243/56 76/244/56 88/245/56 87/246/56
f 84/203/55 83/206/55 91/247/55 92/248/55
f 13/249/59 14/250/59 96/251/59 95/252/59
f 15/253/60 13/249/60 95/252/60 97/254/60
f 14/250/61 16/255/61 98/256/61 96/251/61
f 16/255/62 15/253/62 97/254/62 98/256/62
f 101/257/1 102/258/1 100/259/1 99/260/1
f 130/261/63 129/262/63 99/263/63 100/264/63
f 129/265/64 128/266/64 101/267/64 99/268/64
f 127/269/65 130/270/65 100/271/65 102/272/65
f 29/273/1 30/274/1 104/97/1 103/79/1
f 47/275/1 46/276/1 105/277/1 106/278/1
f 30/274/1 47/275/1 106/278/1 104/97/1
f 46/276/1 29/273/1 103/79/1 105/277/1
f 107/279/2 109/280/2 117/281/2 115/282/2
f 30/283/6 29/284/6 111/285/6 112/286/6
f 46/287/7 47/288/7 114/289/7 113/290/7
f 47/291/3 30/292/3 112/293/3 114/294/3
f 107/295/1 108/296/1 112/297/1 111/298/1
f 110/299/1 109/300/1 113/301/1 114/302/1
f 108/296/1 110/299/1 114/302/1 112/297/1
f 109/300/1 107/295/1 111/298/1 113/301/1
f 116/303/1 115/304/1 117/305/1 118/306/1
f 108/307/6 107/308/6 115/309/6 116/310/6
f 109/311/7 110/312/7 118/313/7 117/314/7
f 110/315/3 108/316/3 116/317/3 118/318/3
f 1/319/7 2/320/7 120/321/7 119/322/7
f 2/320/7 66/323/7 121/164/7 120/321/7
f 65/324/7 1/319/7 119/322/7 122/162/7
f 66/323/7 65/324/7 122/162/7 121/164/7
f 124/325/7 123/326/7 126/327/7 125/328/7
f 2/329/3 1/330/3 123/331/3 124/332/3
f 66/333/4 2/334/4 124/335/4 125/336/4
f 1/337/1 65/338/1 126/339/1 123/340/1
f 16/341/6 14/342/6 130/270/6 127/269/6
f 13/343/7 15/344/7 128/266/7 129/265/7
f 14/345/2 13/346/2 129/262/2 130/261/2
f 15/347/3 16/348/3 127/24/3 128/23/3
f 132/349/6 133/350/6 136/351/6 131/352/6
f 131/352/6 136/351/6 134/353/6 135/354/6
f 6/13/4 11/16/4 131/355/4 135/356/4
f 8/8/2 7/7/2 133/357/2 132/358/2
f 7/359/1 9/3/1 136/28/1 133/360/1
f 11/16/4 8/34/4 132/361/4 131/355/4
